<svg xmlns="http://www.w3.org/2000/svg" viewBox="0 0 400 400"><defs><style>.a{fill:#fff;}.black{fill:#000;}</style></defs><title>db-logo-quad</title><path class="black" d="M207,208.39l-2.34-.22-21-25,2.59-2.14,19.94,23.74a149.42,149.42,0,0,0,15.25-15.64c7.54-9,16.73-22.48,17.66-35.61a48.8,48.8,0,0,0-2-18.4A38,38,0,0,0,229,121c-7.14-7.83-17.61-12.29-29.43-12.55-11.55-.26-22,3.81-29.35,11.48a33.45,33.45,0,0,0-9.64,25,23.46,23.46,0,0,0,5.69,14,24.25,24.25,0,0,0,12.23,7.77,19.85,19.85,0,0,0,12.39-.7c4.38-1.73,8.12-5,11.12-9.81l0.86-1.41,2.81,1.78-0.86,1.41c-3.38,5.38-7.66,9.12-12.7,11.13a23.15,23.15,0,0,1-14.44.86,27.62,27.62,0,0,1-13.93-8.8,26.76,26.76,0,0,1-6.48-15.94,36.79,36.79,0,0,1,10.53-27.46c8.05-8.41,19.36-12.83,31.85-12.56,12.73,0.28,24,5.13,31.78,13.64a41.27,41.27,0,0,1,8.78,15.35,52.16,52.16,0,0,1,2.16,19.65c-0.44,6.23-2.59,13-6.41,20.12a104.06,104.06,0,0,1-12.08,17.43A145.61,145.61,0,0,1,207,208.39"/><path class="black" d="M53.1,245.43c0,4.19,3,4.67,5.65,4.67,11.74,0,15.6-8.86,15.6-17,0-10.16-6.53-17.5-17-17.5-2.23,0-3.26.16-4.24,0.22v29.56Zm-5.33-25.49c0-4.89-2.59-4.57-5-4.62v-1.42c2.12,0.11,4.32.11,6.41,0.11,2.29,0,5.38-.11,9.4-0.11,14.08,0,21.74,9.4,21.74,19,0,5.38-3.15,18.91-22.39,18.91-2.77,0-5.33-.11-7.88-0.11s-4.83.05-7.28,0.11v-1.42c3.26-.33,4.83-0.43,5-4.13V219.94Z"/><path class="black" d="M99.3,235.14c1.36,0,1.52-.71,1.52-1.36,0-2.77-1.73-5-4.73-5-3.31,0-5.6,2.44-6.25,6.36H99.3Zm-9.62,1.73a13.68,13.68,0,0,0,0,3.15c0.33,5.18,3.64,9.4,8,9.4,3,0,5.33-1.63,7.34-3.64l0.76,0.76c-2.5,3.28-5.56,6.13-10.06,6.13-8.63,0-10.36-8.37-10.36-11.85,0-10.65,7.17-13.81,11-13.81,4.4,0,9.13,2.77,9.18,8.54a5.81,5.81,0,0,1-.05,1l-0.51.35H89.67Z"/><path class="black" d="M117.33,245.71c0,2.06,2,5.54,5.6,5.54,5.82,0,8.26-5.71,8.26-10.54,0-5.87-4.45-10.76-8.69-10.76-2,0-3.69,1.3-5.18,2.59v13.17Zm0-14.78c2.18-1.85,5.11-3.91,8.1-3.91,6.3,0,10.11,5.49,10.11,11.41,0,7.12-5.18,14.24-12.95,14.24a16,16,0,0,1-7.55-1.9L113.41,252l-1.14-.6a63.43,63.43,0,0,0,.76-9.68V218.36c0-3.53-.81-3.64-2.88-4.24v-0.86a34.77,34.77,0,0,0,5.59-2.34,5.62,5.62,0,0,1,1.2-.6c0.33,0,.43.33,0.43,0.76v19.85Z"/><path class="black" d="M154.29,239.78c-2.77,1.09-9.84,2.34-9.84,6.41a3.92,3.92,0,0,0,3.86,3.91c2.59,0,4.19-1.58,6-3.15v-7.17Zm8.8,9.94c-1.52,1.42-3.21,2.93-5.38,2.93s-3.26-2.06-3.37-4c-2.59,2.34-5,4-8.37,4s-5.87-2.39-5.87-5.27c0.22-4.32,2.44-5.18,14.18-9.18v-3.58c0-3-1.8-4.67-5.27-4.67a3.76,3.76,0,0,0-4.13,3.81c0,1.52-1.73,2.29-3,2.29a1,1,0,0,1-1-1.09c0-2.88,2.44-4.24,6.25-6.2,1.9-1,2.82-1.73,4.89-1.73,2.44,0,6.63,1.58,6.63,4.57v15.05c0,2.23.76,3.1,2,3.1a2.69,2.69,0,0,0,2-.92Z"/><path class="black" d="M174,245.16c0,3.59,2,4.57,3.45,4.57a5.39,5.39,0,0,0,3.81-1.58L182,249c-1.9,2-4.32,3.69-7.22,3.69-3.45,0-5.18-1.85-5.18-5.06V230.76H166v-0.86c2.82-2.18,4.51-3.2,7.28-7.61H174v5.54h8.1v2.93H174v14.41h0Z"/><path class="black" d="M192.06,245.16c0,3.59,2,4.57,3.45,4.57a5.39,5.39,0,0,0,3.81-1.58l0.81,0.81c-1.9,2-4.32,3.69-7.22,3.69-3.45,0-5.18-1.85-5.18-5.06V230.76h-3.59v-0.86c2.83-2.18,4.51-3.2,7.28-7.61h0.66v5.54h8.1v2.93h-8.1v14.41h0Z"/><path class="black" d="M217,235.14c1.36,0,1.52-.71,1.52-1.36,0-2.77-1.73-5-4.73-5-3.31,0-5.6,2.44-6.25,6.36H217Zm-9.61,1.73a13.68,13.68,0,0,0,0,3.15c0.33,5.18,3.64,9.4,8,9.4,3,0,5.33-1.63,7.34-3.64l0.76,0.76c-2.5,3.31-5.6,6.15-10.06,6.15-8.63,0-10.36-8.37-10.36-11.85,0-10.65,7.17-13.81,11-13.81,4.4,0,9.13,2.77,9.18,8.54a5.89,5.89,0,0,1-.05,1l-0.49.33H207.39Z"/><path class="black" d="M230.37,234.28c0-2-.6-2.59-3.15-3.59v-1a73.27,73.27,0,0,0,7.17-2.59c0.16,0,.33.11,0.33,0.54v3.53c3.1-2.23,5.76-4.07,9.4-4.07,4.62,0,6.25,3.37,6.25,7.61v14c0,1.8,1.2,1.8,2.72,1.8h1v1.42c-1.9,0-3.81-.11-5.76-0.11s-3.91.05-5.87,0.11v-1.42h1c1.52,0,2.59,0,2.59-1.8V234.56c0-3.1-1.9-4.62-5-4.62-1.73,0-4.51,1.42-6.3,2.59v16.09c0,1.8,1.2,1.8,2.72,1.8h1v1.42c-1.9,0-3.81-.11-5.76-0.11s-3.91.05-5.87,0.11v-1.42h1c1.52,0,2.59,0,2.59-1.8V234.28h0Z"/><path class="black" d="M265.27,245.71c0,2.06,2,5.54,5.59,5.54,5.82,0,8.26-5.71,8.26-10.54,0-5.87-4.45-10.76-8.69-10.76-2,0-3.69,1.3-5.18,2.59v13.21Zm0-14.78c2.18-1.85,5.11-3.91,8.1-3.91,6.3,0,10.11,5.49,10.11,11.41,0,7.12-5.18,14.24-12.95,14.24a16,16,0,0,1-7.55-1.9L261.34,252l-1.14-.6a63.32,63.32,0,0,0,.76-9.68V218.36c0-3.53-.81-3.64-2.88-4.24v-0.86a34.76,34.76,0,0,0,5.6-2.34,5.6,5.6,0,0,1,1.2-.6c0.33,0,.43.33,0.43,0.76v19.85Z"/><path class="black" d="M287.49,250.43h1c1.52,0,2.59,0,2.59-1.8V218.36c0-3.53-.82-3.64-2.88-4.24v-0.86a34.86,34.86,0,0,0,5.6-2.34,5.58,5.58,0,0,1,1.2-.6c0.33,0,.43.33,0.43,0.76v37.55c0,1.8,1.2,1.8,2.72,1.8h0.92v1.42c-1.85,0-3.75-.11-5.71-0.11s-3.91.05-5.92,0.11v-1.42h0Z"/><path class="black" d="M316.24,251.25c5.44,0,7.55-6.3,7.55-11,0-4.45-2.39-11.85-8.15-11.85-5.38,0-7.5,6.3-7.5,11,0,4.45,2.39,11.85,8.1,11.85M315.6,227c7.55,0,13.21,5,13.21,12.71a12.78,12.78,0,0,1-12.5,12.95c-7.22,0-13.15-5-13.15-12.71,0-7,5.18-12.95,12.45-12.95"/><path class="black" d="M343,228.42c-3.31,0-4.78,3.31-4.78,6.2,0,3.15,1.36,7.28,5.11,7.28s5.27-3,5.27-6.36-1.8-7.12-5.6-7.12m2.34,23.42c-3.53,0-9,0-9,5.11,0,3.75,3.37,5.54,7.17,5.54,3.31,0,9.49-1.42,9.49-6.25,0-4-4.78-4.4-7.66-4.4M356.88,231l-5.38-.22a6.67,6.67,0,0,1,1.42,4.13c0,4-3.31,8.37-10.06,8.37a16.09,16.09,0,0,1-3-.33,3.18,3.18,0,0,0-1.63,2.77c0,0.82.22,2.5,3.81,2.5,2.67,0,5.33.05,7.5,0.05,4.67,0,7.45,1.42,7.45,5.49,0,2.12-2.82,10.43-14.41,10.43-6.9,0-10.27-3.15-10.27-6.08,0-3.45,3-5.59,6.36-6.25v-0.11c-2.28-.65-4.78-2.23-4.78-4.73a4.64,4.64,0,0,1,.22-1.73,44.44,44.44,0,0,0,4.51-2.72c-3-1.58-5.11-3.64-5.11-7.22,0-4.73,3.45-8.37,10.17-8.37a18.34,18.34,0,0,1,4.78.76,17.32,17.32,0,0,0,5.27.92,18.43,18.43,0,0,0,3.15-.28V231h0Z"/><path class="a" d="M399.9,0.1V399.9H0.1V0.1H399.9M400,0H0V400H400V0h0Z"/></svg>