<svg xmlns="http://www.w3.org/2000/svg" viewBox="0 0 400 400"><defs><style>.a{fill: #fe0}.b{fill: #fff}.black{fill:#000}</style></defs><title>e16-logo-quad</title><g><path class="black" d="M183.72,136.2H162.94v55.56h10.82v-20.9h10c11,0,18.27-7.21,18.27-17.33s-7.29-17.32-18.27-17.32m-1.34,25.33h-8.55V145.61h8.55c5.41,0,8.7,3.06,8.7,8s-3.29,7.92-8.7,7.92"/><path class="black" d="M316.94,193c11.21,0,19.68-7.42,19.68-17.88S329.48,158,319.06,158c-6,0-10.2,2.78-12.06,5.65,1.16-9.57,8.21-14.55,16.84-14.55a21.75,21.75,0,0,1,8.35,1.81l3-8.78a22.15,22.15,0,0,0-10.66-2.36c-16.78,0-28.23,11.6-28.23,29.87,0,15.37,9.49,23.37,20.62,23.37m-0.07-26.11c4.94,0,9,3.22,9,8.47s-4.08,8.55-9,8.55c-4.7,0-8.94-3.38-8.94-8.55s4.08-8.47,8.94-8.47"/><polygon class="a" points="146.27 163.99 118.48 136.19 118.48 191.78 146.27 163.99"/><path class="black" d="M266.68,150.47v7.29h12.23v34h10.74V140.9h-9.33c-1,5.33-6.19,9.49-13.64,9.56"/><polygon class="black" points="133.06 246.18 142.16 260.76 155.25 260.76 140.65 238.58 133.06 246.18"/><polygon class="black" points="155.18 205.16 142.55 205.16 133.22 219.91 140.67 227.36 155.18 205.16"/><polygon class="black" points="105.46 205.16 118.48 225.03 118.48 205.16 105.46 205.16"/><polygon class="black" points="105.39 260.76 118.09 260.76 118.48 260.13 118.48 240.81 105.39 260.76"/><path class="a" d="M319.06,227c-6,0-10.2,2.78-12.06,5.65,1.18-9.57,8.23-14.59,16.86-14.59a21.76,21.76,0,0,1,8.35,1.8l3-8.78a22.15,22.15,0,0,0-10.66-2.36c-16.78,0-28.23,11.6-28.23,29.87,0,15.37,9.49,23.37,20.62,23.37s19.68-7.42,19.68-17.88S329.48,227,319.06,227m-2.2,25.87c-4.7,0-8.94-3.38-8.94-8.55s4.08-8.47,8.94-8.47,9,3.22,9,8.47-4.08,8.55-9,8.55"/><rect class="black" x="75.43" y="205.16" width="23.99" height="10.19"/><rect class="black" x="75.43" y="250.56" width="23.99" height="10.19"/><rect class="black" x="75.43" y="228.06" width="21.72" height="9.64"/><path class="black" d="M183.72,205.16h-10v9.41h8.62c5.41,0,8.71,3.06,8.71,8,0,4.79-3.29,7.92-8.71,7.92h-8.62v9.33h10c11,0,18.27-7.21,18.27-17.32s-7.29-17.33-18.27-17.33"/><polygon class="a" points="146.27 232.96 140.67 227.36 133.22 219.91 118.48 205.17 118.48 225.03 118.48 240.81 118.48 260.13 118.48 260.76 133.06 246.18 140.65 238.58 146.27 232.96"/><polygon class="a" points="75.43 205.16 64.61 205.16 64.61 260.76 75.43 260.76 75.43 250.56 75.43 237.7 75.43 228.06 75.43 215.36 75.43 205.16"/><polygon class="black" points="75.43 136.19 64.61 136.19 64.61 191.79 75.43 191.79 99.42 191.79 99.42 181.6 75.43 181.6 75.43 168.74 97.15 168.74 97.15 159.09 75.43 159.09 75.43 146.39 99.42 146.39 99.42 136.19 75.43 136.19 75.43 136.19"/><polygon class="a" points="173.76 214.57 173.76 205.16 162.94 205.16 162.94 260.76 173.76 260.76 173.76 239.83 173.76 230.49 173.76 214.57"/><path class="black" d="M266.68,219.43v7.29h12.16V213.55c-2.23,3.44-6.55,5.81-12.16,5.87"/><polygon class="a" points="278.83 213.56 278.83 226.73 278.83 260.76 278.91 260.76 289.65 260.76 289.65 209.87 289.65 205.16 278.83 205.16 278.83 213.56"/><path class="black" d="M316.86,235.82c-4.86,0-8.94,3.22-8.94,8.47s4.24,8.55,8.94,8.55c4.94,0,9-3.29,9-8.55s-4.08-8.47-9-8.47"/><path class="black" d="M234.23,204c-15.05,0-28.54,11.05-28.54,29s13.48,28.93,28.54,28.93,28.62-11.05,28.62-28.93-13.48-29-28.62-29m0,48.31A19.34,19.34,0,1,1,253.57,233a19.34,19.34,0,0,1-19.34,19.34h0"/><path class="a" d="M234.27,213.62A19.34,19.34,0,1,0,253.6,233a19.34,19.34,0,0,0-19.34-19.34h0"/><path class="a" d="M234.27,185a19.34,19.34,0,1,0-19.34-19.34A19.34,19.34,0,0,0,234.27,185h0"/></g><path class="b" d="M399.9,0.1V399.9H0.1V0.1H399.9M400,0H0V400H400V0h0Z"/></svg>