<svg xmlns="http://www.w3.org/2000/svg" viewBox="0 0 27 26"><defs><style>.a{fill:#29abe2;}</style></defs><title>icon-star</title><polygon class="a" points="23.58 11.08 19.14 15.41 18.54 15.99 18.68 16.82 19.73 22.93 14.24 20.04 13.5 19.66 12.76 20.04 7.27 22.93 8.32 16.82 8.46 15.99 7.86 15.41 3.42 11.08 9.56 10.19 10.38 10.07 10.76 9.32 13.5 3.76 16.24 9.32 16.62 10.07 17.44 10.19 23.58 11.08"/><path d="M19.14,15.41l4.44-4.33-6.14-.89-0.82-.12-0.38-.75L13.5,3.76,10.76,9.32l-0.38.75-0.82.12-6.14.89,4.44,4.33L8.46,16l-0.14.83L7.27,22.93,12.76,20l0.74-.38L14.24,20l5.49,2.89-1.05-6.11L18.54,16ZM27,10l-6.75,6.58,1.59,9.29L13.5,21.45,5.16,25.84l1.59-9.29L0,10,9.33,8.61,13.5,0.16l4.17,8.45Z"/></svg>