<?xml version="1.0" encoding="utf-8"?>
<!-- Generator: Adobe Illustrator 19.2.1, SVG Export Plug-In . SVG Version: 6.00 Build 0)  -->
<svg version="1.1" id="Layer_1" xmlns="http://www.w3.org/2000/svg" xmlns:xlink="http://www.w3.org/1999/xlink" x="0px" y="0px"
	 viewBox="0 0 44 44" style="enable-background:new 0 0 44 44;" xml:space="preserve">
<style type="text/css">
	.st0{fill:url(#SVGID_1_);}
	.st1{fill:url(#SVGID_2_);}
</style>
<title>icon-close</title>
<linearGradient id="SVGID_1_" gradientUnits="userSpaceOnUse" x1="43.3255" y1="0.6843" x2="0.694" y2="43.3157">
	<stop  offset="0" style="stop-color:#FFED00"/>
	<stop  offset="0.3807" style="stop-color:#FFEA00"/>
	<stop  offset="0.6759" style="stop-color:#FFE000"/>
	<stop  offset="0.9417" style="stop-color:#FFD000"/>
	<stop  offset="0.9879" style="stop-color:#FFCC00"/>
	<stop  offset="1" style="stop-color:#FFCC00"/>
</linearGradient>
<polygon class="st0" points="44,1.4 42.6,0 22,20.6 1.4,0 0,1.4 20.6,22 0,42.6 1.4,44 22,23.4 42.6,44 44,42.6 23.4,22 "/>
<linearGradient id="SVGID_2_" gradientUnits="userSpaceOnUse" x1="-937.1868" y1="624.4394" x2="-936.1868" y2="624.4394" gradientTransform="matrix(477.407 0 0 -477.407 447114.6562 298003.6562)">
	<stop  offset="0" style="stop-color:#FFED00"/>
	<stop  offset="0.9879" style="stop-color:#FFCC00"/>
	<stop  offset="1" style="stop-color:#FFCC00"/>
</linearGradient>
<path class="st1" d="M-187.5-115.9c-1.4-1.5-3.5-2.3-5.4-2.3c-2.1,0-3.9,1.1-3.9,3.4c0,2.5,2.3,3.6,5.9,5.3c4,1.9,6.8,3.6,6.8,7.6
	c0,5-4.5,7.7-9.4,7.7c-3.3,0-6.9-1.2-9.5-3.9l2.9-3.4c1.7,2.1,4.4,3.1,6.9,3.1c2.4,0,4.5-1,4.5-3.1c0-2.1-2.1-3.1-4.5-4.3
	c-4.7-2.3-8.2-4.1-8.2-8.7c0-5.2,4.4-7.4,8.6-7.4c2.9,0,5.6,1.2,7.5,3L-187.5-115.9z M-155.9-94.8v-17.9l-7.1,11.9h-3.9l-7.1-11.9
	v17.9h-4.3v-26.5h4.6l8.8,15l8.8-15h4.6v26.5H-155.9z M-142.4-94.8h-4.7l10.3-26.5h4.3l10.3,26.5h-4.7l-2.5-6.7h-10.5L-142.4-94.8z
	 M-138.4-105.5h7.5l-3.8-10.1L-138.4-105.5z M-110.4-105.8h-3.1v10.9h-4.3v-26.5h9.4c5.2,0,8,3.7,8,7.5c0,3-1.7,6.1-5.2,7.4l7,11.6
	h-5.3L-110.4-105.8z M-109-109.7c2.8,0,4.2-1.9,4.2-3.9c0-1.9-1.4-3.7-4.2-3.7h-4.4v7.6H-109z M-88.3-94.8v-22.5h-8.7v-4h21.7v4
	h-8.7v22.5H-88.3z M-66.5-110h9v4h-9v7.2H-55v4h-15.9v-26.5h15.6v4h-11.2V-110z M-41.5-105.8h-3.1v10.9h-4.3v-26.5h9.4
	c5.2,0,8,3.7,8,7.5c0,3-1.7,6.1-5.2,7.4l7,11.6H-35L-41.5-105.8z M-40.2-109.7c2.8,0,4.2-1.9,4.2-3.9c0-1.9-1.4-3.7-4.2-3.7h-4.4
	v7.6H-40.2z M-18.1-94.8l-10-26.5h4.6l7.5,20.1l7.4-20.1h4.8l-10.3,26.5H-18.1z M26.5-108.1c0,7.8-5.9,13.8-13.7,13.8
	c-7.8,0-13.7-6-13.7-13.8c0-7.8,5.9-13.8,13.7-13.8C20.6-121.9,26.5-115.9,26.5-108.1z M3.6-108.1c0,5.6,4.1,9.7,9.3,9.7
	c5.1,0,9.3-4.1,9.3-9.7c0-5.6-4.1-9.7-9.3-9.7C7.7-117.8,3.6-113.7,3.6-108.1z M36.8-94.8v-22.5h-8.7v-4h21.7v4h-8.7v22.5H36.8z
	 M58.6-110h9v4h-9v7.2h11.6v4H54.2v-26.5h15.6v4H58.6V-110z"/>
</svg>
