<svg xmlns="http://www.w3.org/2000/svg" viewBox="0 0 365 185"><defs><style>.a{fill:#fe0;}</style></defs><title>logo-expo16</title><path d="M164.28,35.09H141.87V95h11.67V72.46h10.74c11.84,0,19.7-7.78,19.7-18.69s-7.86-18.68-19.7-18.68M162.84,62.4h-9.22V45.24h9.22c5.83,0,9.38,3.3,9.38,8.62,0,5.16-3.55,8.54-9.38,8.54"/><path d="M307.94,96.31c12.09,0,21.22-8,21.22-19.28S321.46,58.6,310.22,58.6c-6.43,0-11,3-13,6.09C298.47,54.37,306.07,49,315.38,49a23.45,23.45,0,0,1,9,1.95l3.21-9.47c-2.28-1.35-6.43-2.54-11.5-2.54-18.09,0-30.44,12.51-30.44,32.21,0,16.57,10.23,25.2,22.24,25.2m-0.08-28.16c5.33,0,9.72,3.47,9.72,9.13s-4.4,9.22-9.72,9.22c-5.07,0-9.64-3.64-9.64-9.22s4.4-9.13,9.64-9.13"/><polygon class="a" points="123.9 65.06 93.93 35.09 93.93 95.03 123.9 65.06"/><path d="M253.74,50.48v7.86h13.19V95h11.58V40.16H268.45c-1.1,5.75-6.68,10.23-14.71,10.31"/><polygon points="109.65 153.69 119.47 169.41 133.58 169.41 117.84 145.5 109.65 153.69"/><polygon points="133.5 109.46 119.89 109.46 109.83 125.36 117.86 133.4 133.5 109.46"/><polygon points="79.89 109.46 93.93 130.88 93.93 109.46 79.89 109.46"/><polygon points="79.81 169.41 93.51 169.41 93.93 168.74 93.93 147.9 79.81 169.41"/><path class="a" d="M310.22,133c-6.43,0-11,3-13,6.09,1.27-10.32,8.88-15.73,18.18-15.73a23.47,23.47,0,0,1,9,1.94l3.21-9.47c-2.28-1.35-6.43-2.54-11.5-2.54-18.09,0-30.44,12.51-30.44,32.21,0,16.57,10.23,25.2,22.24,25.2s21.22-8,21.22-19.28S321.46,133,310.22,133m-2.37,27.9c-5.07,0-9.64-3.64-9.64-9.22s4.4-9.13,9.64-9.13,9.72,3.47,9.72,9.13-4.4,9.22-9.72,9.22"/><rect x="47.51" y="109.46" width="25.87" height="10.99"/><rect x="47.51" y="158.42" width="25.87" height="10.99"/><rect x="47.51" y="134.15" width="23.42" height="10.4"/><path d="M164.28,109.46H153.54v10.15h9.3c5.83,0,9.39,3.3,9.39,8.63,0,5.16-3.55,8.54-9.39,8.54h-9.3v10.06h10.74c11.84,0,19.7-7.78,19.7-18.68s-7.86-18.69-19.7-18.69"/><polygon class="a" points="123.9 139.44 117.86 133.4 109.83 125.36 93.93 109.47 93.93 130.88 93.93 147.9 93.93 168.74 93.93 169.41 109.65 153.69 117.84 145.5 123.9 139.44"/><polygon class="a" points="47.51 109.46 35.84 109.46 35.84 169.41 47.51 169.41 47.51 158.42 47.51 144.55 47.51 134.15 47.51 120.46 47.51 109.46"/><polygon points="47.51 35.09 35.84 35.09 35.84 95.04 47.51 95.04 73.38 95.04 73.38 84.05 47.51 84.05 47.51 70.18 70.93 70.18 70.93 59.78 47.51 59.78 47.51 46.08 73.38 46.08 73.38 35.09 47.51 35.09 47.51 35.09"/><polygon class="a" points="153.54 119.61 153.54 109.46 141.87 109.46 141.87 169.41 153.54 169.41 153.54 146.84 153.54 136.77 153.54 119.61"/><path d="M253.74,124.85v7.86h13.11v-14.2c-2.4,3.71-7.06,6.27-13.11,6.33"/><polygon class="a" points="266.84 118.52 266.84 132.72 266.84 169.41 266.93 169.41 278.51 169.41 278.51 114.54 278.51 109.46 266.84 109.46 266.84 118.52"/><path d="M307.85,142.52c-5.24,0-9.64,3.47-9.64,9.13s4.57,9.22,9.64,9.22c5.33,0,9.72-3.55,9.72-9.22s-4.4-9.13-9.72-9.13"/><path d="M218.75,108.2c-16.23,0-30.78,11.92-30.78,31.28s14.54,31.2,30.78,31.2,30.86-11.92,30.86-31.2-14.54-31.28-30.86-31.28m0,52.1a20.85,20.85,0,1,1,20.85-20.85,20.85,20.85,0,0,1-20.85,20.85"/><path class="a" d="M218.79,118.58a20.85,20.85,0,1,0,20.85,20.85,20.85,20.85,0,0,0-20.85-20.85"/><path class="a" d="M218.79,87.69a20.85,20.85,0,1,0-20.85-20.85,20.85,20.85,0,0,0,20.85,20.85"/></svg>