<svg xmlns="http://www.w3.org/2000/svg" viewBox="0 0 364.07 184.41"><title>logo-debattenblog</title><path d="M190.77,120l-2.71-.25-24.35-29,3-2.48,23.1,27.5a173.12,173.12,0,0,0,17.67-18.12c8.74-10.43,19.38-26.05,20.46-41.26a56.54,56.54,0,0,0-2.32-21.32,44,44,0,0,0-9.35-16.36C208,9.64,195.87,4.47,182.17,4.17c-13.38-.3-25.47,4.42-34,13.3A38.76,38.76,0,0,0,137,46.38a27.18,27.18,0,0,0,6.59,16.19,28.1,28.1,0,0,0,14.17,9,23,23,0,0,0,14.35-.81c5.07-2,9.41-5.85,12.88-11.37l1-1.63,3.26,2.06-1,1.63c-3.92,6.23-8.87,10.57-14.72,12.9a26.82,26.82,0,0,1-16.73,1,32,32,0,0,1-16.14-10.2,31,31,0,0,1-7.51-18.47,42.62,42.62,0,0,1,12.2-31.82C154.68,5.12,167.78,0,182.25.31,197,0.64,210.09,6.25,219.07,16.11A47.82,47.82,0,0,1,229.24,33.9a60.43,60.43,0,0,1,2.5,22.77c-0.51,7.22-3,15.06-7.43,23.31a120.56,120.56,0,0,1-14,20.2A168.71,168.71,0,0,1,190.77,120" transform="translate(-0.46 -0.29)"/><path d="M12.43,162.92c0,4.85,3.46,5.41,6.55,5.41,13.6,0,18.07-10.26,18.07-19.64,0-11.77-7.56-20.27-19.71-20.27-2.58,0-3.78.19-4.91,0.25v34.25ZM6.26,133.39c0-5.67-3-5.29-5.79-5.35V126.4c2.46,0.13,5,.13,7.43.13,2.65,0,6.23-.13,10.89-0.13,16.31,0,25.19,10.89,25.19,22,0,6.23-3.65,21.91-25.94,21.91-3.21,0-6.17-.13-9.13-0.13s-5.6.06-8.44,0.13v-1.64c3.78-.38,5.6-0.5,5.79-4.79V133.39Z" transform="translate(-0.46 -0.29)"/><path d="M65.95,151c1.57,0,1.76-.82,1.76-1.57,0-3.21-2-5.79-5.48-5.79-3.84,0-6.49,2.83-7.24,7.37h11ZM54.8,153a15.85,15.85,0,0,0,0,3.65c0.38,6,4.22,10.89,9.26,10.89,3.46,0,6.17-1.89,8.5-4.22l0.88,0.88C70.54,168,67,171.3,61.79,171.3c-10,0-12-9.7-12-13.73,0-12.34,8.31-16,12.72-16,5.1,0,10.58,3.21,10.64,9.89a6.73,6.73,0,0,1-.06,1.13L72.5,153H54.8Z" transform="translate(-0.46 -0.29)"/><path d="M86.85,163.24c0,2.39,2.27,6.42,6.49,6.42,6.74,0,9.57-6.61,9.57-12.21,0-6.8-5.16-12.47-10.07-12.47-2.33,0-4.28,1.51-6,3v15.3Zm0-17.13c2.52-2.14,5.92-4.53,9.38-4.53,7.3,0,11.71,6.36,11.71,13.22,0,8.25-6,16.5-15,16.5a18.53,18.53,0,0,1-8.75-2.2l-1.89,1.45-1.32-.69a73.49,73.49,0,0,0,.88-11.21V131.56c0-4.09-.94-4.22-3.34-4.91v-1A40.28,40.28,0,0,0,85,122.94a6.51,6.51,0,0,1,1.39-.69c0.38,0,.5.38,0.5,0.88v23Z" transform="translate(-0.46 -0.29)"/><path d="M129.67,156.37c-3.21,1.26-11.4,2.71-11.4,7.43a4.54,4.54,0,0,0,4.47,4.53c3,0,4.85-1.83,6.93-3.65v-8.31Zm10.2,11.52c-1.76,1.64-3.72,3.4-6.23,3.4s-3.78-2.39-3.9-4.66c-3,2.71-5.79,4.66-9.7,4.66s-6.8-2.77-6.8-6.11c0.25-5,2.83-6,16.43-10.64v-4.15c0-3.53-2.08-5.41-6.11-5.41-2.77,0-4.66,1.57-4.78,4.41,0,1.76-2,2.65-3.53,2.65a1.14,1.14,0,0,1-1.13-1.26c0-3.34,2.83-4.91,7.24-7.18,2.2-1.13,3.27-2,5.67-2,2.83,0,7.68,1.83,7.68,5.29v17.44c0,2.58.88,3.59,2.27,3.59a3.12,3.12,0,0,0,2.33-1.07Z" transform="translate(-0.46 -0.29)"/><path d="M152.47,162.61c0,4.16,2.27,5.29,4,5.29a6.25,6.25,0,0,0,4.41-1.83l0.94,0.94c-2.2,2.27-5,4.28-8.37,4.28-4,0-6-2.14-6-5.86V145.92h-4.16v-1c3.27-2.52,5.23-3.71,8.44-8.82h0.76v6.42h9.38v3.4h-9.38v16.69Z" transform="translate(-0.46 -0.29)"/><path d="M173.43,162.61c0,4.16,2.27,5.29,4,5.29a6.25,6.25,0,0,0,4.41-1.83l0.94,0.94c-2.2,2.27-5,4.28-8.37,4.28-4,0-6-2.14-6-5.86V145.92h-4.16v-1c3.28-2.52,5.23-3.71,8.44-8.82h0.76v6.42h9.38v3.4h-9.38v16.69Z" transform="translate(-0.46 -0.29)"/><path d="M202.33,151c1.57,0,1.76-.82,1.76-1.57,0-3.21-2-5.79-5.48-5.79-3.84,0-6.49,2.83-7.24,7.37h11Zm-11.14,2a15.85,15.85,0,0,0,0,3.65c0.38,6,4.22,10.89,9.26,10.89,3.46,0,6.17-1.89,8.5-4.22l0.88,0.88c-2.9,3.84-6.49,7.12-11.65,7.12-10,0-12-9.7-12-13.73,0-12.34,8.31-16,12.72-16,5.1,0,10.58,3.21,10.64,9.89a6.83,6.83,0,0,1-.06,1.13l-0.57.38H191.19Z" transform="translate(-0.46 -0.29)"/><path d="M217.82,150c0-2.33-.69-3-3.65-4.16v-1.2a84.89,84.89,0,0,0,8.31-3c0.19,0,.38.13,0.38,0.63v4.09c3.59-2.58,6.67-4.72,10.89-4.72,5.35,0,7.24,3.9,7.24,8.82v16.24c0,2.08,1.39,2.08,3.15,2.08h1.13v1.64c-2.2,0-4.41-.13-6.67-0.13s-4.53.06-6.8,0.13v-1.64h1.13c1.76,0,3,0,3-2.08V150.33c0-3.59-2.2-5.35-5.79-5.35-2,0-5.23,1.64-7.3,3v18.64c0,2.08,1.39,2.08,3.15,2.08h1.13v1.64c-2.2,0-4.41-.13-6.67-0.13s-4.53.06-6.8,0.13v-1.64h1.13c1.76,0,3,0,3-2.08V150Z" transform="translate(-0.46 -0.29)"/><path d="M258.25,163.24c0,2.39,2.27,6.42,6.48,6.42,6.74,0,9.57-6.61,9.57-12.21,0-6.8-5.16-12.47-10.07-12.47-2.33,0-4.28,1.51-6,3v15.3Zm0-17.13c2.52-2.14,5.92-4.53,9.38-4.53,7.3,0,11.71,6.36,11.71,13.22,0,8.25-6,16.5-15,16.5a18.54,18.54,0,0,1-8.75-2.2l-1.89,1.45-1.32-.69a73.36,73.36,0,0,0,.88-11.21V131.56c0-4.09-.94-4.22-3.34-4.91v-1a40.27,40.27,0,0,0,6.49-2.71,6.49,6.49,0,0,1,1.39-.69c0.38,0,.5.38,0.5,0.88v23Z" transform="translate(-0.46 -0.29)"/><path d="M284,168.71h1.2c1.76,0,3,0,3-2.08V131.56c0-4.09-.95-4.22-3.34-4.91v-1a40.39,40.39,0,0,0,6.49-2.71,6.47,6.47,0,0,1,1.39-.69c0.38,0,.5.38,0.5,0.88v43.51c0,2.08,1.39,2.08,3.15,2.08h1.07v1.64c-2.14,0-4.34-.13-6.61-0.13s-4.53.06-6.86,0.13v-1.64Z" transform="translate(-0.46 -0.29)"/><path d="M317.31,169.66c6.3,0,8.75-7.3,8.75-12.72,0-5.16-2.77-13.73-9.44-13.73-6.23,0-8.69,7.3-8.69,12.72,0,5.16,2.77,13.73,9.38,13.73m-0.75-28.08c8.75,0,15.3,5.79,15.3,14.73,0,8.12-6.42,15-14.48,15-8.37,0-15.24-5.79-15.24-14.73,0-8.12,6-15,14.42-15" transform="translate(-0.46 -0.29)"/><path d="M348.29,143.21c-3.84,0-5.54,3.84-5.54,7.18,0,3.65,1.57,8.44,5.92,8.44s6.11-3.53,6.11-7.37-2.08-8.25-6.49-8.25M351,170.35c-4.09,0-10.45,0-10.45,5.92,0,4.34,3.9,6.42,8.31,6.42,3.84,0,11-1.64,11-7.24,0-4.6-5.54-5.1-8.88-5.1m13.41-24.12-6.23-.25a7.73,7.73,0,0,1,1.64,4.79c0,4.6-3.84,9.7-11.65,9.7a18.64,18.64,0,0,1-3.46-.38,3.68,3.68,0,0,0-1.89,3.21c0,0.95.25,2.9,4.41,2.9,3.09,0,6.17.06,8.69,0.06,5.41,0,8.63,1.64,8.63,6.36,0,2.46-3.27,12.09-16.69,12.09-8,0-11.9-3.65-11.9-7.05,0-4,3.53-6.48,7.37-7.24v-0.13c-2.64-.75-5.54-2.58-5.54-5.48a5.38,5.38,0,0,1,.25-2,51.49,51.49,0,0,0,5.23-3.15c-3.53-1.83-5.92-4.22-5.92-8.37,0-5.48,4-9.7,11.78-9.7a21.25,21.25,0,0,1,5.54.88,20.07,20.07,0,0,0,6.11,1.07,21.35,21.35,0,0,0,3.65-.32v3Z" transform="translate(-0.46 -0.29)"/></svg>