<svg xmlns="http://www.w3.org/2000/svg" xmlns:xlink="http://www.w3.org/1999/xlink" viewBox="0 0 400 400"><defs><style>.a{fill:#fff;}.b{fill:url(#a);}.c{fill:url(#b);}.d{fill:url(#c);}.e{fill:url(#d);}.f{fill:url(#e);}.g{fill:url(#f);}.h{fill:url(#g);}.black{fill:#000;}</style><linearGradient id="a" x1="54.62" y1="164" x2="1076.69" y2="164" gradientUnits="userSpaceOnUse"><stop offset="0" stop-color="#00ef77"/><stop offset="0" stop-color="#05ef75"/><stop offset="0.04" stop-color="#3ff15a"/><stop offset="0.08" stop-color="#72f342"/><stop offset="0.12" stop-color="#9df52e"/><stop offset="0.16" stop-color="#c1f71d"/><stop offset="0.2" stop-color="#dcf810"/><stop offset="0.25" stop-color="#eff807"/><stop offset="0.29" stop-color="#fbf902"/><stop offset="0.33" stop-color="#fff900"/><stop offset="0.39" stop-color="#ffd62a"/><stop offset="0.53" stop-color="#ff7e94"/><stop offset="0.67" stop-color="#ff25ff"/><stop offset="0.72" stop-color="#c15aff"/><stop offset="0.78" stop-color="#878cff"/><stop offset="0.83" stop-color="#57b5ff"/><stop offset="0.88" stop-color="#31d5ff"/><stop offset="0.93" stop-color="#16ecff"/><stop offset="0.97" stop-color="#06faff"/><stop offset="1" stop-color="aqua"/></linearGradient><linearGradient id="b" x1="124.81" y1="127.78" x2="166.51" y2="127.78" gradientUnits="userSpaceOnUse"><stop offset="0" stop-color="#fff900"/><stop offset="1" stop-color="#ffab24"/></linearGradient><linearGradient id="c" x1="148.44" y1="169.12" x2="172.67" y2="169.12" gradientUnits="userSpaceOnUse"><stop offset="0" stop-color="#ff904a"/><stop offset="1" stop-color="#ff42aa"/></linearGradient><linearGradient id="d" x1="170.71" y1="199.53" x2="215.16" y2="199.53" gradientUnits="userSpaceOnUse"><stop offset="0" stop-color="#ff40ad"/><stop offset="1" stop-color="#ff2cff"/></linearGradient><linearGradient id="e" x1="182.42" y1="125.59" x2="251.64" y2="125.59" gradientUnits="userSpaceOnUse"><stop offset="0" stop-color="#ff2eff"/><stop offset="1" stop-color="#9c67ff"/></linearGradient><linearGradient id="f" x1="225.84" y1="177.82" x2="253.49" y2="177.82" gradientUnits="userSpaceOnUse"><stop offset="0" stop-color="#956aff"/><stop offset="1" stop-color="#00b7ff"/></linearGradient><linearGradient id="g" x1="267.54" y1="161.94" x2="315.56" y2="161.94" gradientUnits="userSpaceOnUse"><stop offset="0" stop-color="#00a5ff"/><stop offset="1" stop-color="#00fcff"/></linearGradient></defs><title>sv-logo-quad</title><path class="a" d="M399.9,0.1V399.9H0.1V0.1H399.9M400,0H0V400H400V0h0Z"/><circle class="b" cx="111.23" cy="164" r="22.83"/><path class="black" d="M89.2,250.81a11.38,11.38,0,0,0,8.95,4.7c2.73,0,4.89-1.14,4.89-2.86s-2.29-2.6-5.14-3.55c-5.33-1.71-11.49-3.43-11.49-10,0-6.09,5.27-9.14,11.17-9.14a16.81,16.81,0,0,1,10.35,3.49l-3.74,5.27A9.6,9.6,0,0,0,97.39,236c-2.22,0-4.13.83-4.13,2.86,0,2.29,2.48,3.24,6.16,4.44,5.08,1.65,10.41,2.73,10.41,8.7,0,6.16-5.65,9.58-12,9.58-4.82,0-10.28-2-13.39-6Z"/><path class="black" d="M158.9,260.78h-6.6V242.69c0-4.25-2.16-6.41-5.2-6.41-3.3,0-6.22,2.54-6.22,7.68v16.82h-6.6V242.69c0-4.25-2.29-6.41-5.27-6.41-3.24,0-6.22,2.54-6.22,7.68v16.82h-6.6V230.69h6.47v4a9.64,9.64,0,0,1,8.44-4.76,9,9,0,0,1,8.25,5.08,11.29,11.29,0,0,1,9.33-5.08c5.27,0,10.22,3.49,10.22,10.92v19.93Z"/><path class="black" d="M203.52,259.07a7.11,7.11,0,0,1-5.4,2.29,6.84,6.84,0,0,1-6.86-4.76,15.12,15.12,0,0,1-11,4.82c-7.3,0-14.41-5.46-14.41-15.61,0-10.41,7.68-15.61,14.92-15.61a13.56,13.56,0,0,1,9.78,4v-3.49H197v21.52a2.12,2.12,0,0,0,2.22,2.41,3.73,3.73,0,0,0,2-.7Zm-13.08-13.46c0-6.35-4.57-9.52-9.08-9.52s-9,3.11-9,9.58,4.32,9.71,8.89,9.71S190.44,252.15,190.44,245.61Z"/><path class="black" d="M226.62,231l-1.46,6.66a10.44,10.44,0,0,0-3.81-.76c-3.36,0-6.16,2-6.16,7.24v16.63h-6.6V230.69h6.47v3.68a8.35,8.35,0,0,1,7.62-4.06A11.13,11.13,0,0,1,226.62,231Z"/><path class="black" d="M237.07,236.79h-5.2v-6.09h5.2V223h6.6v7.68h7.17v6.09h-7.17v13.77c0,3.36,2,4.7,4.32,4.7a7.48,7.48,0,0,0,3.74-1.08l2.22,5.33a14.22,14.22,0,0,1-7.11,1.9c-5.08,0-9.77-3.17-9.77-10.22V236.79Z"/><path class="black" d="M285.88,248.66H264c1,4.32,5.08,6.47,8.95,6.47A10.37,10.37,0,0,0,281.5,251l4.25,4.13a16.22,16.22,0,0,1-12.95,6.28c-7.81,0-15.68-5.52-15.68-15.87s7.55-15.61,15.36-15.61c7.36,0,13.71,4.82,13.71,15A22.21,22.21,0,0,1,285.88,248.66Zm-22-5.46h15.74a7.1,7.1,0,0,0-7.43-7.36A8.11,8.11,0,0,0,263.85,243.2Z"/><path class="black" d="M312.47,231L311,237.67a10.44,10.44,0,0,0-3.81-.76c-3.36,0-6.16,2-6.16,7.24v16.63h-6.6V230.69h6.47v3.68a8.35,8.35,0,0,1,7.62-4.06A11.13,11.13,0,0,1,312.47,231Z"/><path class="black" d="M146.31,308.39L134.25,278.3h7.36l7.93,21.84,7.87-21.84h7.36l-12,30.09h-6.47Z"/><path class="black" d="M198.81,293.28a15.74,15.74,0,1,1-15.74-15.74A15.31,15.31,0,0,1,198.81,293.28Zm-24.95-.06c0,5.59,3.81,9.65,9.2,9.65s9.2-4.06,9.2-9.65-3.81-9.58-9.2-9.58S173.86,287.69,173.86,293.21Z"/><path class="black" d="M207.18,284.39H202V278.3h5.2v-7.68h6.6v7.68H221v6.09h-7.17v13.77c0,3.36,2,4.7,4.32,4.7a7.48,7.48,0,0,0,3.74-1.08l2.22,5.33A14.22,14.22,0,0,1,217,309c-5.08,0-9.77-3.17-9.77-10.22V284.39Z"/><path class="black" d="M254.73,296.26H232.89c1,4.32,5.08,6.47,8.95,6.47a10.37,10.37,0,0,0,8.51-4.13l4.25,4.13A16.22,16.22,0,0,1,241.65,309c-7.81,0-15.68-5.52-15.68-15.87s7.55-15.61,15.36-15.61c7.36,0,13.71,4.82,13.71,15A22.21,22.21,0,0,1,254.73,296.26Zm-22-5.46h15.74a7.1,7.1,0,0,0-7.43-7.36A8.11,8.11,0,0,0,232.7,290.8Z"/><circle class="c" cx="145.66" cy="127.78" r="20.85"/><circle class="d" cx="160.56" cy="169.12" r="12.12"/><circle class="e" cx="192.94" cy="199.53" r="22.22"/><circle class="f" cx="217.03" cy="125.59" r="34.61"/><circle class="g" cx="239.67" cy="177.82" r="13.83"/><circle class="h" cx="291.55" cy="161.94" r="24.01"/></svg>