<svg xmlns="http://www.w3.org/2000/svg" xmlns:xlink="http://www.w3.org/1999/xlink" viewBox="0 0 400 400" preserveAspectRatio="xMidYMid meet"> <defs> <style>.sv-a{fill: #fff;}.sv-b{fill: url(#a);}.sv-c{fill: url(#b);}.sv-d{fill: url(#c);}.sv-e{fill: url(#d);}.sv-f{fill: url(#e);}.sv-g{fill: url(#f);}.black{fill:#000}</style> <linearGradient id="a" data-name="Unbenannter Verlauf 338" x1="89.23" y1="158.71" x2="463.25" y2="158.71" gradientUnits="userSpaceOnUse"> <stop offset="0" stop-color="#00ef77"/> <stop offset="0" stop-color="#05ef75"/> <stop offset="0.04" stop-color="#3ff15a"/> <stop offset="0.08" stop-color="#72f342"/> <stop offset="0.12" stop-color="#9df52e"/> <stop offset="0.16" stop-color="#c1f71d"/> <stop offset="0.2" stop-color="#dcf810"/> <stop offset="0.25" stop-color="#eff807"/> <stop offset="0.29" stop-color="#fbf902"/> <stop offset="0.33" stop-color="#fff900"/> <stop offset="0.39" stop-color="#ffd62a"/> <stop offset="0.53" stop-color="#ff7e94"/> <stop offset="0.67" stop-color="#ff25ff"/> <stop offset="0.72" stop-color="#c15aff"/> <stop offset="0.78" stop-color="#878cff"/> <stop offset="0.83" stop-color="#57b5ff"/> <stop offset="0.88" stop-color="#31d5ff"/> <stop offset="0.93" stop-color="#16ecff"/> <stop offset="0.97" stop-color="#06faff"/> <stop offset="1" stop-color="aqua"/> </linearGradient> <linearGradient id="b" x1="91.8" y1="159" x2="420.81" y2="159" xlink:href="#a"/> <linearGradient id="c" x1="64.71" y1="197.3" x2="340.06" y2="197.3" xlink:href="#a"/> <linearGradient id="d" x1="9.21" y1="120.38" x2="366.94" y2="120.38" xlink:href="#a"/> <linearGradient id="e" x1="-41.04" y1="187.54" x2="330.61" y2="187.54" xlink:href="#a"/> <linearGradient id="f" x1="379.11" y1="676.79" x2="719.25" y2="676.79" gradientTransform="matrix(1.12, 0, 0, 1.12, -494.24, -600.83)" xlink:href="#a"/> </defs> <title>sv-logo-quad</title> <path class="sv-a" d="M399.9,0.1V399.9H0.1V0.1H399.9M400,0H0V400H400V0h0Z"/> <g> <g> <path class="black" d="M89.32,254.3a11.53,11.53,0,0,0,9.07,4.76c2.76,0,5-1.16,5-2.89s-2.31-2.64-5.21-3.6c-5.4-1.74-11.64-3.47-11.64-10.16,0-6.17,5.34-9.26,11.32-9.26a17,17,0,0,1,10.48,3.54L104.5,242a9.73,9.73,0,0,0-6.88-2.76c-2.25,0-4.18.84-4.18,2.89,0,2.31,2.51,3.28,6.24,4.5,5.14,1.67,10.55,2.76,10.55,8.81,0,6.24-5.72,9.71-12.15,9.71-4.89,0-10.42-2-13.57-6Z"/> <path class="black" d="M159.92,264.4h-6.69V246.07c0-4.31-2.19-6.49-5.27-6.49-3.34,0-6.3,2.57-6.3,7.78v17H135V246.07c0-4.31-2.31-6.49-5.34-6.49-3.28,0-6.3,2.57-6.3,7.78v17h-6.69V233.92h6.56V238a9.77,9.77,0,0,1,8.55-4.82,9.16,9.16,0,0,1,8.36,5.14,11.44,11.44,0,0,1,9.45-5.14c5.34,0,10.35,3.54,10.35,11.06V264.4Z"/> <path class="black" d="M205.13,262.66a7.2,7.2,0,0,1-5.47,2.31,6.93,6.93,0,0,1-6.94-4.82A15.31,15.31,0,0,1,181.59,265c-7.39,0-14.6-5.53-14.6-15.82,0-10.55,7.78-15.82,15.11-15.82a13.73,13.73,0,0,1,9.9,4.05v-3.54h6.56v21.8a2.15,2.15,0,0,0,2.25,2.44,3.78,3.78,0,0,0,2.06-.71ZM191.88,249c0-6.43-4.63-9.65-9.19-9.65s-9.13,3.15-9.13,9.71,4.37,9.84,9,9.84S191.88,255.65,191.88,249Z"/> <path class="black" d="M228.53,234.24L227.05,241a10.57,10.57,0,0,0-3.86-.77c-3.41,0-6.24,2.06-6.24,7.33V264.4h-6.69V233.92h6.56v3.73a8.46,8.46,0,0,1,7.72-4.12A11.27,11.27,0,0,1,228.53,234.24Z"/> <path class="black" d="M239.11,240.09h-5.27v-6.17h5.27v-7.78h6.69v7.78h7.27v6.17H245.8v14c0,3.41,2,4.76,4.37,4.76a7.58,7.58,0,0,0,3.79-1.09l2.25,5.4A14.4,14.4,0,0,1,249,265c-5.14,0-9.9-3.22-9.9-10.35v-14.6Z"/> <path class="black" d="M288.56,252.12H266.44c1,4.37,5.14,6.56,9.07,6.56a10.51,10.51,0,0,0,8.62-4.18l4.31,4.18A16.43,16.43,0,0,1,275.31,265c-7.91,0-15.88-5.59-15.88-16.08s7.65-15.82,15.56-15.82c7.46,0,13.89,4.89,13.89,15.18A22.5,22.5,0,0,1,288.56,252.12Zm-22.31-5.53h15.95a7.19,7.19,0,0,0-7.52-7.46A8.22,8.22,0,0,0,266.25,246.59Z"/> <path class="black" d="M315.5,234.24L314,241a10.57,10.57,0,0,0-3.86-.77c-3.41,0-6.24,2.06-6.24,7.33V264.4h-6.69V233.92h6.56v3.73a8.46,8.46,0,0,1,7.72-4.12A11.27,11.27,0,0,1,315.5,234.24Z"/> <path class="black" d="M147.18,312.62L135,282.14h7.46l8,22.12,8-22.12h7.46l-12.15,30.48h-6.56Z"/> <path class="black" d="M200.35,297.32a15.95,15.95,0,1,1-15.95-15.95A15.51,15.51,0,0,1,200.35,297.32Zm-25.27-.06c0,5.66,3.86,9.77,9.32,9.77s9.32-4.12,9.32-9.77-3.86-9.71-9.32-9.71S175.08,291.66,175.08,297.26Z"/> <path class="black" d="M208.84,288.32h-5.27v-6.17h5.27v-7.78h6.69v7.78h7.27v6.17h-7.27v14c0,3.41,2,4.76,4.37,4.76a7.58,7.58,0,0,0,3.79-1.09l2.25,5.4a14.4,14.4,0,0,1-7.2,1.93c-5.14,0-9.9-3.22-9.9-10.35v-14.6Z"/> <path class="black" d="M257,300.34H234.88c1,4.37,5.14,6.56,9.07,6.56a10.51,10.51,0,0,0,8.62-4.18l4.31,4.18a16.43,16.43,0,0,1-13.12,6.37c-7.91,0-15.88-5.59-15.88-16.08s7.65-15.82,15.56-15.82c7.46,0,13.89,4.89,13.89,15.18A22.5,22.5,0,0,1,257,300.34Zm-22.31-5.53h15.95a7.19,7.19,0,0,0-7.52-7.46A8.22,8.22,0,0,0,234.69,294.81Z"/> </g> <circle class="sv-b" cx="123.15" cy="158.71" r="28.84"/> <circle class="sv-c" cx="176.09" cy="159" r="11.54"/> <circle class="sv-d" cx="180.83" cy="197.3" r="19.23"/> <path class="sv-e" d="M219.29,86.73a33.65,33.65,0,1,1-33.65,33.65,33.65,33.65,0,0,1,33.65-33.65"/> <circle class="sv-f" cx="238.73" cy="187.54" r="17.31"/> <circle class="sv-g" cx="282.07" cy="159" r="24.04"/></g></svg>