<svg xmlns="http://www.w3.org/2000/svg" xmlns:xlink="http://www.w3.org/1999/xlink" viewBox="0 0 112.98 32"><defs><style>.a{fill:url(#a);}.b{fill:url(#b);}.c{fill:url(#c);}.d{fill:url(#d);}.e{fill:url(#e);}.f{fill:url(#f);}</style><linearGradient id="a" x1="-1.25" y1="17.75" x2="90.96" y2="17.75" gradientUnits="userSpaceOnUse"><stop offset="0" stop-color="#00ef77"/><stop offset="0" stop-color="#05ef75"/><stop offset="0.04" stop-color="#3ff15a"/><stop offset="0.08" stop-color="#72f342"/><stop offset="0.12" stop-color="#9df52e"/><stop offset="0.16" stop-color="#c1f71d"/><stop offset="0.2" stop-color="#dcf810"/><stop offset="0.25" stop-color="#eff807"/><stop offset="0.29" stop-color="#fbf902"/><stop offset="0.33" stop-color="#fff900"/><stop offset="0.39" stop-color="#ffd62a"/><stop offset="0.53" stop-color="#ff7e94"/><stop offset="0.67" stop-color="#ff25ff"/><stop offset="0.72" stop-color="#c15aff"/><stop offset="0.78" stop-color="#878cff"/><stop offset="0.83" stop-color="#57b5ff"/><stop offset="0.88" stop-color="#31d5ff"/><stop offset="0.93" stop-color="#16ecff"/><stop offset="0.97" stop-color="#06faff"/><stop offset="1" stop-color="aqua"/></linearGradient><linearGradient id="b" x1="-0.62" y1="17.82" x2="80.5" y2="17.82" xlink:href="#a"/><linearGradient id="c" x1="-7.3" y1="27.26" x2="60.59" y2="27.26" xlink:href="#a"/><linearGradient id="d" x1="-20.97" y1="8.3" x2="67.23" y2="8.3" xlink:href="#a"/><linearGradient id="e" x1="-33.37" y1="24.85" x2="58.26" y2="24.85" xlink:href="#a"/><linearGradient id="f" x1="388.78" y1="530.93" x2="472.64" y2="530.93" gradientTransform="matrix(1.12, 0, 0, 1.12, -476.65, -578.25)" xlink:href="#a"/></defs><title>sv-logo-horizontal</title><path d="M58.41,14.88A2.78,2.78,0,0,0,60.59,16a1,1,0,0,0,1.19-.7c0-.43-0.56-0.64-1.26-0.87-1.3-.42-2.81-0.84-2.81-2.45S59,9.78,60.45,9.78a4.11,4.11,0,0,1,2.53.85l-0.92,1.29a2.35,2.35,0,0,0-1.66-.67,0.83,0.83,0,0,0-1,.7c0,0.56.61,0.79,1.51,1.09,1.24,0.4,2.54.67,2.54,2.13s-1.38,2.34-2.93,2.34A4.23,4.23,0,0,1,57.24,16Z" transform="translate(-0.01)"/><path d="M75.44,17.32H73.83V12.9a1.32,1.32,0,0,0-1.27-1.57A1.62,1.62,0,0,0,71,13.21v4.11H69.42V12.9a1.34,1.34,0,0,0-1.29-1.57,1.63,1.63,0,0,0-1.52,1.88v4.11H65V10h1.58v1a2.36,2.36,0,0,1,2.06-1.16,2.21,2.21,0,0,1,2,1.24,2.76,2.76,0,0,1,2.28-1.24,2.44,2.44,0,0,1,2.5,2.67v4.87Z" transform="translate(-0.01)"/><path d="M86.35,16.9a1.74,1.74,0,0,1-1.32.56,1.67,1.67,0,0,1-1.68-1.16,3.7,3.7,0,0,1-2.68,1.18,3.55,3.55,0,0,1-3.52-3.82A3.61,3.61,0,0,1,80.8,9.84a3.31,3.31,0,0,1,2.39,1V10h1.58v5.26a0.52,0.52,0,0,0,.54.59,0.91,0.91,0,0,0,.5-0.17Zm-3.2-3.29a2.19,2.19,0,0,0-2.22-2.33,2.16,2.16,0,0,0-2.2,2.34A2.17,2.17,0,0,0,80.91,16,2.23,2.23,0,0,0,83.16,13.61Z" transform="translate(-0.01)"/><path d="M92,10l-0.36,1.63a2.55,2.55,0,0,0-.93-0.19,1.5,1.5,0,0,0-1.51,1.77v4.07H87.59V10h1.58v0.9a2,2,0,0,1,1.86-1A2.72,2.72,0,0,1,92,10Z" transform="translate(-0.01)"/><path d="M94.55,11.45H93.28V10h1.27V8.09h1.61V10h1.75v1.49H96.17v3.37A1,1,0,0,0,97.22,16a1.83,1.83,0,0,0,.92-0.26L98.68,17a3.48,3.48,0,0,1-1.74.47A2.29,2.29,0,0,1,94.55,15V11.45Z" transform="translate(-0.01)"/><path d="M106.49,14.36h-5.34a2.16,2.16,0,0,0,2.19,1.58,2.54,2.54,0,0,0,2.08-1l1,1a4,4,0,0,1-3.17,1.54,3.74,3.74,0,0,1-3.83-3.88,3.65,3.65,0,0,1,3.76-3.82c1.8,0,3.35,1.18,3.35,3.66A5.43,5.43,0,0,1,106.49,14.36ZM101.1,13h3.85a1.74,1.74,0,0,0-1.82-1.8A2,2,0,0,0,101.1,13Z" transform="translate(-0.01)"/><path d="M113,10l-0.36,1.63a2.55,2.55,0,0,0-.93-0.19,1.5,1.5,0,0,0-1.51,1.77v4.07h-1.61V10h1.58v0.9a2,2,0,0,1,1.86-1A2.72,2.72,0,0,1,113,10Z" transform="translate(-0.01)"/><path d="M60.15,29L57.2,21.6H59l1.94,5.34,1.92-5.34h1.8L61.73,29H60.15Z" transform="translate(-0.01)"/><path d="M73,25.26a3.85,3.85,0,1,1-3.85-3.85A3.74,3.74,0,0,1,73,25.26Zm-6.1,0a2.25,2.25,0,1,0,4.5,0A2.25,2.25,0,1,0,66.88,25.25Z" transform="translate(-0.01)"/><path d="M75,23.09H73.76V21.6H75V19.72h1.61V21.6H78.4v1.49H76.64v3.37a1,1,0,0,0,1.06,1.15,1.83,1.83,0,0,0,.92-0.26l0.54,1.3a3.48,3.48,0,0,1-1.74.47A2.29,2.29,0,0,1,75,26.61V23.09Z" transform="translate(-0.01)"/><path d="M86.65,26H81.31a2.16,2.16,0,0,0,2.19,1.58,2.54,2.54,0,0,0,2.08-1l1,1a4,4,0,0,1-3.17,1.54,3.74,3.74,0,0,1-3.83-3.88,3.65,3.65,0,0,1,3.76-3.82c1.8,0,3.35,1.18,3.35,3.66A5.43,5.43,0,0,1,86.65,26Zm-5.38-1.33h3.85a1.74,1.74,0,0,0-1.82-1.8A2,2,0,0,0,81.27,24.66Z" transform="translate(-0.01)"/><circle class="a" cx="7.11" cy="17.75" r="7.11"/><circle class="b" cx="20.16" cy="17.82" r="2.84"/><circle class="c" cx="21.33" cy="27.26" r="4.74"/><path class="d" d="M30.83,0a8.3,8.3,0,1,1-8.3,8.3A8.3,8.3,0,0,1,30.83,0" transform="translate(-0.01)"/><circle class="e" cx="35.61" cy="24.85" r="4.27"/><circle class="f" cx="46.29" cy="17.82" r="5.93"/></svg>