<svg xmlns="http://www.w3.org/2000/svg" xmlns:xlink="http://www.w3.org/1999/xlink" viewBox="0 0 112.94 32"><defs><style>.a{fill:url(#a);}.b{fill:url(#b);}.c{fill:url(#c);}.d{fill:url(#d);}.e{fill:url(#e);}.f{fill:url(#f);}.g{fill:url(#g);}</style><linearGradient id="a" x1="-8.27" y1="17.87" x2="241.82" y2="17.87" gradientUnits="userSpaceOnUse"><stop offset="0" stop-color="#00ef77"/><stop offset="0" stop-color="#05ef75"/><stop offset="0.04" stop-color="#3ff15a"/><stop offset="0.08" stop-color="#72f342"/><stop offset="0.12" stop-color="#9df52e"/><stop offset="0.16" stop-color="#c1f71d"/><stop offset="0.2" stop-color="#dcf810"/><stop offset="0.25" stop-color="#eff807"/><stop offset="0.29" stop-color="#fbf902"/><stop offset="0.33" stop-color="#fff900"/><stop offset="0.39" stop-color="#ffd62a"/><stop offset="0.53" stop-color="#ff7e94"/><stop offset="0.67" stop-color="#ff25ff"/><stop offset="0.72" stop-color="#c15aff"/><stop offset="0.78" stop-color="#878cff"/><stop offset="0.83" stop-color="#57b5ff"/><stop offset="0.88" stop-color="#31d5ff"/><stop offset="0.93" stop-color="#16ecff"/><stop offset="0.97" stop-color="#06faff"/><stop offset="1" stop-color="aqua"/></linearGradient><linearGradient id="b" x1="8.91" y1="9.01" x2="19.11" y2="9.01" gradientUnits="userSpaceOnUse"><stop offset="0" stop-color="#fff900"/><stop offset="1" stop-color="#ffab24"/></linearGradient><linearGradient id="c" x1="14.69" y1="19.12" x2="20.62" y2="19.12" gradientUnits="userSpaceOnUse"><stop offset="0" stop-color="#ff904a"/><stop offset="1" stop-color="#ff42aa"/></linearGradient><linearGradient id="d" x1="20.14" y1="26.56" x2="31.02" y2="26.56" gradientUnits="userSpaceOnUse"><stop offset="0" stop-color="#ff40ad"/><stop offset="1" stop-color="#ff2cff"/></linearGradient><linearGradient id="e" x1="23" y1="8.47" x2="39.94" y2="8.47" gradientUnits="userSpaceOnUse"><stop offset="0" stop-color="#ff2eff"/><stop offset="1" stop-color="#9c67ff"/></linearGradient><linearGradient id="f" x1="33.63" y1="21.25" x2="40.4" y2="21.25" gradientUnits="userSpaceOnUse"><stop offset="0" stop-color="#956aff"/><stop offset="1" stop-color="#00b7ff"/></linearGradient><linearGradient id="g" x1="43.83" y1="17.36" x2="55.58" y2="17.36" gradientUnits="userSpaceOnUse"><stop offset="0" stop-color="#00a5ff"/><stop offset="1" stop-color="#00fcff"/></linearGradient></defs><title>sv-logo-horizontal</title><path d="M58.31,13.89A2.78,2.78,0,0,0,60.5,15a1,1,0,0,0,1.2-.7c0-.43-0.56-0.64-1.26-0.87-1.3-.42-2.81-0.84-2.81-2.45s1.29-2.24,2.73-2.24a4.11,4.11,0,0,1,2.53.85L62,10.93a2.35,2.35,0,0,0-1.66-.67,0.83,0.83,0,0,0-1,.7c0,0.56.61,0.79,1.51,1.09,1.24,0.4,2.55.67,2.55,2.13S62,16.52,60.42,16.52a4.23,4.23,0,0,1-3.28-1.46Z" transform="translate(0 0.04)"/><path d="M75.36,16.33H73.75V11.91a1.32,1.32,0,0,0-1.27-1.57A1.62,1.62,0,0,0,71,12.22v4.12H69.34V11.91A1.34,1.34,0,0,0,68,10.34a1.63,1.63,0,0,0-1.52,1.88v4.12H64.91V9H66.5v1a2.36,2.36,0,0,1,2.07-1.16,2.21,2.21,0,0,1,2,1.24,2.76,2.76,0,0,1,2.28-1.24,2.44,2.44,0,0,1,2.5,2.67v4.88Z" transform="translate(0 0.04)"/><path d="M86.28,15.91a1.74,1.74,0,0,1-1.32.56,1.67,1.67,0,0,1-1.68-1.16,3.7,3.7,0,0,1-2.69,1.18,3.55,3.55,0,0,1-3.53-3.82,3.62,3.62,0,0,1,3.65-3.82,3.32,3.32,0,0,1,2.39,1V9H84.7v5.27a0.52,0.52,0,0,0,.54.59,0.91,0.91,0,0,0,.5-0.17Zm-3.2-3.29a2.19,2.19,0,0,0-2.22-2.33,2.16,2.16,0,0,0-2.21,2.35A2.17,2.17,0,0,0,80.83,15,2.23,2.23,0,0,0,83.08,12.62Z" transform="translate(0 0.04)"/><path d="M91.94,9l-0.36,1.63a2.55,2.55,0,0,0-.93-0.19,1.5,1.5,0,0,0-1.51,1.77v4.07H87.53V9h1.58v0.9a2,2,0,0,1,1.86-1A2.72,2.72,0,0,1,91.94,9Z" transform="translate(0 0.04)"/><path d="M94.49,10.46H93.22V9h1.27V7.09h1.62V9h1.76v1.49H96.11v3.37A1,1,0,0,0,97.16,15a1.83,1.83,0,0,0,.92-0.26L98.62,16a3.48,3.48,0,0,1-1.74.47A2.29,2.29,0,0,1,94.49,14V10.46Z" transform="translate(0 0.04)"/><path d="M106.43,13.37h-5.34A2.16,2.16,0,0,0,103.28,15a2.54,2.54,0,0,0,2.08-1l1,1a4,4,0,0,1-3.17,1.54,3.74,3.74,0,0,1-3.84-3.88,3.65,3.65,0,0,1,3.76-3.82c1.8,0,3.35,1.18,3.35,3.67A5.43,5.43,0,0,1,106.43,13.37ZM101,12h3.85a1.74,1.74,0,0,0-1.82-1.8A2,2,0,0,0,101,12Z" transform="translate(0 0.04)"/><path d="M112.94,9l-0.36,1.63a2.55,2.55,0,0,0-.93-0.19,1.5,1.5,0,0,0-1.51,1.77v4.07h-1.62V9h1.58v0.9a2,2,0,0,1,1.86-1A2.72,2.72,0,0,1,112.94,9Z" transform="translate(0 0.04)"/><circle class="a" cx="5.59" cy="17.87" r="5.59"/><circle class="b" cx="14.01" cy="9.01" r="5.1"/><circle class="c" cx="17.66" cy="19.12" r="2.96"/><circle class="d" cx="25.58" cy="26.56" r="5.44"/><circle class="e" cx="31.47" cy="8.47" r="8.47"/><circle class="f" cx="37.01" cy="21.25" r="3.38"/><circle class="g" cx="49.71" cy="17.36" r="5.87"/><path d="M60.1,28l-3-7.36h1.8L60.89,26l1.93-5.34h1.8L61.68,28H60.1Z" transform="translate(0 0.04)"/><path d="M72.94,24.29a3.85,3.85,0,1,1-3.85-3.85A3.75,3.75,0,0,1,72.94,24.29Zm-6.1,0a2.25,2.25,0,1,0,4.5,0A2.25,2.25,0,1,0,66.84,24.27Z" transform="translate(0 0.04)"/><path d="M75,22.11H73.72V20.62H75V18.74h1.62v1.88h1.76v1.49H76.61v3.37a1,1,0,0,0,1.06,1.15,1.83,1.83,0,0,0,.92-0.26l0.54,1.3a3.48,3.48,0,0,1-1.74.47A2.29,2.29,0,0,1,75,25.64V22.11Z" transform="translate(0 0.04)"/><path d="M86.62,25H81.28a2.16,2.16,0,0,0,2.19,1.58,2.54,2.54,0,0,0,2.08-1l1,1a4,4,0,0,1-3.17,1.54,3.74,3.74,0,0,1-3.84-3.88,3.65,3.65,0,0,1,3.76-3.82c1.8,0,3.35,1.18,3.35,3.67A5.43,5.43,0,0,1,86.62,25Zm-5.39-1.34h3.85a1.74,1.74,0,0,0-1.82-1.8A2,2,0,0,0,81.24,23.68Z" transform="translate(0 0.04)"/></svg>