<?xml version="1.0" encoding="UTF-8" standalone="no"?>
<!DOCTYPE svg  PUBLIC '-//W3C//DTD SVG 1.1//EN'  'http://www.w3.org/Graphics/SVG/1.1/DTD/svg11.dtd'>
<svg xmlns="http://www.w3.org/2000/svg">
<defs>
<font id="bbb-LightItalic" horiz-adv-x="638">
<font-face slope="-13" underline-position="-150" font-weight="300" descent="-200" panose-1="0 0 4 0 0 0 0 0 0 0" units-per-em="1000" unicode-range="U+000D-FB03" bbox="-127 -250 1367 948" x-height="474" underline-thickness="50" font-family="bbb" ascent="800" font-style="italic" cap-height="658"/>
<missing-glyph horiz-adv-x="300"/>
<glyph glyph-name="ff" horiz-adv-x="693" unicode="ff" d="M676 675q68 0 103 -40l-45 -50q-26 27 -63 27q-29 0 -52.5 -18.5t-31.5 -53.5l-15 -66h122l-15 -66h-122l-94 -408h-71l94 408h-263l-94 -408h-71l94 408h-82l15 66h83l17 76q14 62 58.5 93.5t98.5 31.5q68 0 103 -40l-45 -50q-26 27 -63 27q-29 0 -52.5 -18.5 t-31.5 -53.5l-15 -66h264l17 76q14 62 58.5 93.5t98.5 31.5z"/>
<glyph glyph-name="fi" horiz-adv-x="597" unicode="fi" d="M473 0h-71l94 408h-273l-94 -408h-71l94 408h-82l15 66h83l17 76q14 62 58.5 93.5t98.5 31.5q68 0 103 -40l-45 -50q-26 27 -63 27q-29 0 -52.5 -18.5t-31.5 -53.5l-15 -66h344z"/>
<glyph glyph-name="fl" horiz-adv-x="675" unicode="fl" d="M549 52q23 0 51 10l13 -52q-40 -20 -80 -20q-46 0 -75 26.5t-29 79.5q0 23 6 50l60 262h-272l-94 -408h-71l94 408h-82l15 66h83l17 76q14 62 58.5 93.5t98.5 31.5q68 0 103 -40l-45 -50q-26 27 -63 27q-29 0 -52.5 -18.5t-31.5 -53.5l-15 -66h273l42 184h71l-121 -526 q-4 -15 -4 -30q0 -50 50 -50z"/>
<glyph glyph-name="ffi" horiz-adv-x="939" unicode="ffi" d="M815 0h-71l94 408h-272l-94 -408h-71l94 408h-272l-94 -408h-71l94 408h-82l15 66h83l17 76q14 62 58.5 93.5t98.5 31.5q68 0 103 -40l-45 -50q-26 27 -63 27q-29 0 -52.5 -18.5t-31.5 -53.5l-15 -66h273l17 76q14 62 58.5 93.5t98.5 31.5q68 0 103 -40l-45 -50 q-25 27 -63 27q-29 0 -52.5 -18.5t-31.5 -53.5l-15 -66h343z"/>
<glyph glyph-name="f_t" horiz-adv-x="718" unicode="ft" d="M567 408l-63 -275q-4 -20 -4 -28q0 -53 55 -53q36 0 72 26l23 -50q-53 -38 -112 -38q-47 0 -77.5 28t-30.5 80q0 22 6 47l60 263h-273l-94 -408h-71l94 408h-82l15 66h83l17 76q14 62 58.5 93.5t98.5 31.5q68 0 103 -40l-45 -50q-26 27 -63 27q-29 0 -52.5 -18.5 t-31.5 -53.5l-15 -66h273l28 121h71l-28 -121h118l-15 -66h-118z"/>
<glyph glyph-name="t_t" horiz-adv-x="720" unicode="tt" d="M569 408l-63 -275q-4 -20 -4 -28q0 -53 55 -53q36 0 72 26l23 -50q-53 -38 -112 -38q-47 0 -77.5 28t-30.5 80q0 22 6 47l60 263h-272l-63 -275q-4 -20 -4 -28q0 -53 55 -53q36 0 72 26l23 -50q-53 -38 -112 -38q-47 0 -77.5 28t-30.5 80q0 22 6 47l60 263h-90l15 66h90 l28 121h71l-28 -121h272l28 121h71l-28 -121h118l-15 -66h-118z"/>
<glyph glyph-name="tz" horiz-adv-x="754" unicode="tz" d="M768 406l-266 -234q86 -11 129.5 -58.5t43.5 -112.5q0 -85 -73.5 -153t-189.5 -68q-66 0 -121 28t-82 82l63 42q21 -43 60.5 -65t86.5 -22q71 0 125.5 44t54.5 115q0 51 -48.5 81t-137.5 30h-16l14 63l255 230h-413l-94 -408h-71l94 408h-112l15 66h112l28 121h71 l-28 -121h515z"/>
<glyph glyph-name=".notdef" horiz-adv-x="300"/>
<glyph glyph-name=".null" horiz-adv-x="0"/>
<glyph glyph-name="nonmarkingreturn" horiz-adv-x="333"/>
<glyph glyph-name="CR" horiz-adv-x="280" unicode=""/>
<glyph glyph-name="space" horiz-adv-x="220" unicode=" "/>
<glyph glyph-name="exclam" horiz-adv-x="306" unicode="!" d="M172 46q0 -23 -16.5 -39.5t-39.5 -16.5t-39.5 16.5t-16.5 39.5q0 24 16.5 40t39.5 16t39.5 -16t16.5 -40zM114 188l104 504h86l-129 -504h-61z"/>
<glyph glyph-name="quotedbl" horiz-adv-x="290" unicode='&quot;' d="M304 494h-69l42 181h69zM174 494h-70l42 181h70z"/>
<glyph glyph-name="numbersign" horiz-adv-x="770" unicode="#" d="M512 435h-173l-31 -195h174zM580 435l-30 -195h131v-68h-142l-22 -141h-68l22 141h-174l-22 -141h-67l22 141h-121v68h132l30 195h-135v68h146l22 142h68l-22 -142h173l22 142h68l-22 -142h124v-68h-135z"/>
<glyph glyph-name="dollar" horiz-adv-x="560" unicode="$" d="M335 355q43 -20 65 -32t49.5 -33.5t39.5 -49t12 -63.5q0 -88 -69 -140t-166 -52q-10 0 -32 2l-20 -85h-59l23 96q-83 24 -130 87l58 53q22 -41 68 -63t98 -22q63 0 108.5 31t45.5 85q0 23 -8.5 41.5t-29.5 33.5t-37 24t-48 24q-43 20 -65.5 32.5t-52.5 36t-43.5 55 t-13.5 72.5q0 86 60 134.5t146 52.5l19 83h59l-20 -86q90 -13 140 -69l-50 -55q-48 61 -140 61q-59 0 -100.5 -30t-41.5 -86q0 -27 10 -48t32.5 -38t40.5 -27t52 -25z"/>
<glyph glyph-name="percent" horiz-adv-x="1000" unicode="%" d="M704 161q0 -41 27 -68.5t67 -27.5q41 0 67 27t26 69q0 43 -26 70t-67 27q-40 0 -67 -27.5t-27 -69.5zM631 161q0 71 48.5 121t118.5 50q71 0 120.5 -50t49.5 -121q0 -69 -49.5 -117.5t-120.5 -48.5q-70 0 -118.5 48.5t-48.5 117.5zM200 502q0 -42 27 -69t67 -27 q41 0 67 27t26 69q0 43 -26 70t-67 27q-40 0 -67 -27.5t-27 -69.5zM237 100l533 506l45 -45l-534 -508zM127 502q0 71 48.5 121t118.5 50q71 0 120.5 -50t49.5 -121q0 -69 -49.5 -117.5t-120.5 -48.5q-70 0 -118.5 48.5t-48.5 117.5z"/>
<glyph glyph-name="ampersand" horiz-adv-x="668" unicode="&amp;" d="M265 50q42 0 87.5 19.5t77.5 52.5l-136 196q-78 -17 -118.5 -56t-40.5 -93q0 -55 38 -87t92 -32zM393 617q-42 0 -75 -30.5t-33 -83.5q0 -57 48 -119q72 21 108.5 63.5t36.5 87.5q0 38 -24.5 60t-60.5 22zM549 282l55 -26q-23 -45 -90 -133l63 -89l-58 -40l-55 78 q-92 -88 -214 -88q-84 0 -135.5 48.5t-51.5 128.5q0 75 49.5 128.5t149.5 77.5q-46 71 -46 131q0 85 54.5 131.5t127.5 46.5q63 0 106 -34.5t43 -96.5q0 -60 -43 -121.5t-135 -92.5l109 -157q46 52 71 108z"/>
<glyph glyph-name="quotesingle" horiz-adv-x="160" unicode="&apos;" d="M174 494h-70l42 181h70z"/>
<glyph glyph-name="parenleft" horiz-adv-x="329" unicode="(" d="M321 778l47 -48q-118 -95 -179.5 -219.5t-61.5 -254.5q0 -202 125 -352l-60 -48q-138 178 -138 399q0 144 68.5 280.5t198.5 242.5z"/>
<glyph glyph-name="parenright" horiz-adv-x="344" unicode=")" d="M45 -144l-47 48q118 95 179.5 219.5t61.5 254.5q0 202 -125 352l60 48q138 -178 138 -399q0 -144 -68.5 -280.5t-198.5 -242.5z"/>
<glyph glyph-name="asterisk" horiz-adv-x="480" unicode="*" d="M403 375l-67 -36l-49 107l-104 -113l-50 44l105 105l-107 38l28 64l116 -43l29 134h72l-37 -134l136 43l6 -65l-136 -41z"/>
<glyph glyph-name="plus" horiz-adv-x="454" unicode="+" d="M262 240l-32 -139h-69l32 139h-137l16 66h137l32 139h69l-32 -139h137l-16 -66h-137z"/>
<glyph glyph-name="comma" horiz-adv-x="247" unicode="," d="M14 -161l-54 30l137 246l77 -46z"/>
<glyph glyph-name="hyphen" horiz-adv-x="395" unicode="-" d="M346 307l-15 -66h-265l15 66h265z"/>
<glyph glyph-name="period" horiz-adv-x="245" unicode="." d="M32 46q0 24 16.5 40t39.5 16t39.5 -16t16.5 -40q0 -23 -16.5 -39.5t-39.5 -16.5t-39.5 16.5t-16.5 39.5z"/>
<glyph glyph-name="slash" horiz-adv-x="349" unicode="/" d="M16 -15l-51 35l413 657l50 -34z"/>
<glyph glyph-name="zero" horiz-adv-x="605" unicode="0" d="M277 55q55 0 102 36.5t75.5 93.5t44.5 121.5t16 124.5q0 78 -29 126t-95 48q-73 0 -129.5 -63t-82.5 -147t-26 -166q0 -78 29 -126t95 -48zM270 -15q-97 0 -145 67t-48 179q0 76 22 153.5t61.5 142.5t102 106.5t136.5 41.5q96 0 144 -67t48 -179q0 -76 -21.5 -153 t-60.5 -142.5t-102 -107t-137 -41.5z"/>
<glyph glyph-name="one" horiz-adv-x="334" unicode="1" d="M174 0h-74l135 590h-89l17 68h163z"/>
<glyph glyph-name="two" horiz-adv-x="493" unicode="2" d="M419 68l-16 -68h-412l16 67l275 238q3 2 21.5 18.5t23 20.5t21 19t22 22t17.5 21.5t17 24t11.5 23t9 26.5t2.5 26q0 49 -29.5 76.5t-76.5 27.5q-48 0 -90.5 -26.5t-66.5 -74.5l-58 32q32 65 89.5 99.5t128.5 34.5q78 0 127.5 -41t49.5 -119q0 -67 -42 -124t-125 -127 l-233 -196h318z"/>
<glyph glyph-name="three" horiz-adv-x="503" unicode="3" d="M311 335q63 -13 97 -51.5t34 -95.5q0 -89 -75 -146t-172 -57q-55 0 -107.5 25.5t-86.5 73.5l62 48q21 -38 61 -57.5t86 -19.5q63 0 108 33.5t45 93.5q0 59 -44 90t-112 34l15 66q89 4 141 45t52 99q0 44 -30 68.5t-75 24.5q-81 0 -143 -64l-47 45q31 41 82.5 63t107.5 22 q77 0 130.5 -38.5t53.5 -109.5q0 -65 -46 -119t-137 -73z"/>
<glyph glyph-name="four" horiz-adv-x="566" unicode="4" d="M103 226h234l83 345zM503 158h-106l-34 -158h-75l34 158h-315l17 76l388 424h102l-102 -432h105z"/>
<glyph glyph-name="five" horiz-adv-x="542" unicode="5" d="M229 588l-49 -201q58 49 129 49q85 0 133 -53.5t50 -137.5v-7q0 -114 -83 -183.5t-187 -69.5q-63 0 -116.5 28t-83.5 83l60 42q20 -42 59.5 -63.5t87.5 -21.5q74 0 131 48t57 130q0 60 -32.5 99.5t-93.5 39.5q-74 0 -139 -59h-58l82 348h361l-16 -71h-292z"/>
<glyph glyph-name="six" horiz-adv-x="578" unicode="6" d="M297 51q81 0 128.5 52.5t47.5 121.5q0 61 -39.5 103.5t-112.5 42.5q-79 0 -124.5 -53t-45.5 -122q0 -62 38 -103.5t108 -41.5zM334 436q102 0 156 -60.5t54 -146.5q0 -97 -65.5 -170.5t-175.5 -73.5q-112 0 -173 77.5t-61 191.5q0 60 17 118.5t53.5 113t88.5 96.5 t127.5 67.5t164.5 25.5l-5 -67q-155 -2 -248 -74t-123 -201q73 103 190 103z"/>
<glyph glyph-name="seven" horiz-adv-x="505" unicode="7" d="M549 581l-430 -581h-87l436 580h-384l18 78h465z"/>
<glyph glyph-name="eight" horiz-adv-x="566" unicode="8" d="M266 51q71 0 124 37t53 99q0 94 -150 138q-61 0 -117.5 -44t-56.5 -113q0 -56 42 -86.5t105 -30.5zM226 492q0 -27 10.5 -46.5t33.5 -33t36 -18.5t42 -14q56 11 98 45.5t42 86.5q0 47 -33 74t-84 27q-57 0 -101 -33t-44 -88zM400 351q2 -1 14.5 -8.5t18.5 -11t18.5 -13 t19.5 -16.5t17 -19.5t15 -24.5t9 -28.5t4 -34.5q0 -94 -79.5 -152t-182.5 -58q-90 0 -148.5 46.5t-58.5 129.5q0 76 55.5 130t143.5 68q-91 48 -91 130q0 86 67.5 136t158.5 50q78 0 129.5 -39t51.5 -108q0 -64 -45.5 -110t-116.5 -67z"/>
<glyph glyph-name="nine" horiz-adv-x="559" unicode="9" d="M329 609q-81 0 -128.5 -52.5t-47.5 -121.5q0 -61 39.5 -103.5t112.5 -42.5q79 0 124.5 53t45.5 122q0 62 -38 103.5t-108 41.5zM292 224q-102 0 -156 60.5t-54 146.5q0 97 65.5 170.5t175.5 73.5q112 0 173 -77.5t61 -191.5q0 -60 -17 -118.5t-53.5 -113t-88.5 -96.5 t-127.5 -67.5t-164.5 -25.5l5 67q155 2 248 74t123 201q-73 -103 -190 -103z"/>
<glyph glyph-name="colon" horiz-adv-x="245" unicode=":" d="M69 95q0 24 16.5 40t39.5 16t39.5 -16t16.5 -40q0 -23 -16.5 -39.5t-39.5 -16.5t-39.5 16.5t-16.5 39.5zM146 430q0 24 16.5 40t39.5 16t39.5 -16t16.5 -40q0 -23 -16.5 -39.5t-39.5 -16.5t-39.5 16.5t-16.5 39.5z"/>
<glyph glyph-name="semicolon" horiz-adv-x="270" unicode=";" d="M29 -161l-54 30l137 246l77 -46zM155 403q0 24 16.5 40t39.5 16t39.5 -16t16.5 -40q0 -23 -16.5 -39.5t-39.5 -16.5t-39.5 16.5t-16.5 39.5z"/>
<glyph glyph-name="less" horiz-adv-x="375" unicode="&lt;" d="M371 436l-235 -208l131 -200l-57 -43l-170 253l286 253z"/>
<glyph glyph-name="equal" horiz-adv-x="455" unicode="=" d="M57 242h344l-15 -66h-344zM86 370h344l-15 -66h-344z"/>
<glyph glyph-name="greater" horiz-adv-x="396" unicode="&gt;" d="M10 40l235 208l-131 200l57 43l170 -253l-286 -253z"/>
<glyph glyph-name="question" horiz-adv-x="511" unicode="?" d="M177 102q23 0 39.5 -16t16.5 -39q0 -24 -16.5 -40.5t-39.5 -16.5t-39.5 16.5t-16.5 40.5q0 23 16.5 39t39.5 16zM242 178h-76l42 180h55q84 0 132.5 45.5t48.5 102.5q0 44 -30 74t-84 30q-84 0 -147 -67l-48 41q40 45 95.5 68t110.5 23q83 0 129 -48t46 -117 q0 -78 -65 -140t-181 -68z"/>
<glyph glyph-name="at" horiz-adv-x="763" unicode="@" d="M337 151q44 0 70.5 32.5t26.5 82.5q0 81 -72 81q-47 0 -73 -33t-26 -78q0 -39 19 -62t55 -23zM380 566q133 0 225.5 -77t92.5 -209q0 -84 -39 -135t-102 -51q-38 0 -64.5 19.5t-36.5 56.5q-21 -38 -56.5 -59t-77.5 -21q-62 0 -96 42t-34 103q0 69 45 121.5t123 52.5 q36 0 65.5 -16t41.5 -45l7 49h73l-29 -176q-1 -5 -1 -15q0 -25 14.5 -37.5t35.5 -12.5q32 0 51 28.5t19 82.5q0 109 -74 172t-181 63q-122 0 -191 -79.5t-69 -184.5q0 -96 59 -164.5t162 -68.5q80 0 134 41l36 -49q-63 -57 -175 -57q-69 0 -124.5 25.5t-90 68t-52.5 95 t-18 109.5q0 84 36.5 157.5t113 122t177.5 48.5z"/>
<glyph glyph-name="A" d="M408 569l-193 -320h238zM174 181l-108 -181h-86l407 658h72l104 -658h-74l-26 181h-289z" unicode="A"/>
<glyph glyph-name="B" horiz-adv-x="571" unicode="B" d="M130 68h157q71 0 112 40.5t41 92.5q0 44 -30 74.5t-86 30.5h-139zM201 374h134q66 0 105 36.5t39 84.5q0 39 -27.5 67t-78.5 28h-123zM433 338q39 -16 61 -51t22 -80q0 -81 -66 -144t-177 -63h-233l152 658h208q76 0 116 -45t40 -107q0 -56 -32.5 -101.5t-90.5 -66.5z "/>
<glyph glyph-name="C" horiz-adv-x="694" unicode="C" d="M709 575l-56 -48q-71 79 -183 79q-96 0 -172 -53.5t-114 -130.5t-38 -157q0 -100 57 -154t142 -54q69 0 137 37t114 105l53 -40q-57 -84 -143 -129t-174 -45q-111 0 -185.5 72.5t-74.5 207.5q0 90 35.5 168t93.5 130.5t131.5 82t150.5 29.5q139 0 226 -100z"/>
<glyph glyph-name="D" horiz-adv-x="695" unicode="D" d="M251 591l-121 -523h144q75 0 138.5 28t103.5 73.5t62 100t22 110.5q0 90 -55 150.5t-159 60.5h-135zM192 658h201q137 0 209.5 -79t72.5 -194q0 -70 -28 -137.5t-78.5 -123.5t-131 -90t-176.5 -34h-221z"/>
<glyph glyph-name="E" horiz-adv-x="528" unicode="E" d="M250 590l-51 -225h250l-16 -68h-250l-53 -229h314l-16 -68h-388l152 658h380l-16 -68h-306z"/>
<glyph glyph-name="F" horiz-adv-x="520" unicode="F" d="M250 590l-51 -225h250l-16 -68h-250l-69 -297h-74l152 658h380l-16 -68h-306z"/>
<glyph glyph-name="G" horiz-adv-x="714" unicode="G" d="M655 342l-62 -271q-104 -86 -246 -86q-133 0 -204.5 80.5t-71.5 199.5q0 73 28 145t78 131.5t128 96.5t170 37q145 0 233 -100l-57 -48q-70 79 -183 79q-96 0 -172 -52.5t-113.5 -128.5t-37.5 -156q0 -92 54 -153t157 -61q98 0 172 51l39 169h-159l15 67h232z"/>
<glyph glyph-name="H" horiz-adv-x="684" unicode="H" d="M192 658h74l-67 -293h356l67 293h74l-152 -658h-74l69 296h-356l-69 -296h-74z"/>
<glyph glyph-name="I" horiz-adv-x="264" unicode="I" d="M197 658h74l-152 -658h-74z"/>
<glyph glyph-name="J" horiz-adv-x="505" unicode="J" d="M517 658l-114 -496q-21 -88 -80 -132.5t-131 -44.5q-71 0 -122.5 44.5t-54.5 122.5l72 15q-1 -54 30 -85t77 -31q47 0 85 30t51 87l113 490h74z"/>
<glyph glyph-name="K" horiz-adv-x="581" unicode="K" d="M515 0h-95l-234 312l-72 -312h-74l152 658h74l-71 -307l377 307h106l-407 -332z"/>
<glyph glyph-name="L" horiz-adv-x="483" unicode="L" d="M266 658l-136 -590h299l-16 -68h-373l152 658h74z"/>
<glyph glyph-name="M" horiz-adv-x="828" unicode="M" d="M688 0h-74l120 517l-304 -369h-64l-128 383l-124 -531h-74l152 658h82l139 -424l345 424h82z"/>
<glyph glyph-name="N" horiz-adv-x="706" unicode="N" d="M566 0h-74l-254 541l-124 -541h-74l152 658h74l253 -539l125 539h74z"/>
<glyph glyph-name="O" horiz-adv-x="780" unicode="O" d="M455 603q-122 0 -212.5 -90t-90.5 -219q0 -104 63.5 -171.5t162.5 -67.5q122 0 212.5 90t90.5 219q0 104 -64 171.5t-162 67.5zM464 673q129 0 210.5 -85.5t81.5 -215.5q0 -161 -115 -274t-273 -113q-129 0 -210.5 85.5t-81.5 215.5q0 161 115 274t273 113z"/>
<glyph glyph-name="P" horiz-adv-x="539" unicode="P" d="M197 360h121q78 0 122.5 42t44.5 94q0 40 -29 67t-83 27h-123zM192 658h194q85 0 129.5 -45.5t44.5 -110.5q0 -82 -67 -146t-178 -64h-133l-68 -292h-74z"/>
<glyph glyph-name="Q" horiz-adv-x="787" unicode="Q" d="M381 55q123 0 214.5 90t91.5 219q0 104 -64.5 171.5t-164.5 67.5q-123 0 -215 -90.5t-92 -218.5q0 -104 65 -171.5t165 -67.5zM763 372q0 -123 -71 -221.5t-184 -140.5q36 -67 121 -89l-43 -68q-113 39 -150 137q-35 -5 -65 -5q-130 0 -212.5 85.5t-82.5 215.5 q0 161 116 274t276 113q130 0 212.5 -85.5t82.5 -215.5z"/>
<glyph glyph-name="R" horiz-adv-x="581" unicode="R" d="M200 371h131q71 0 112.5 38t41.5 86q0 40 -29.5 67.5t-85.5 27.5h-120zM306 305h-121l-71 -305h-74l152 658h197q83 0 127.5 -43t44.5 -105q0 -65 -48 -121t-134 -72l122 -317h-79z"/>
<glyph glyph-name="S" horiz-adv-x="560" unicode="S" d="M501 177q0 -88 -69 -140t-166 -52q-66 0 -124.5 26t-93.5 74l58 53q22 -41 68 -63t98 -22q63 0 108.5 31t45.5 85q0 23 -8.5 41.5t-29.5 33.5t-37 24t-48 24q-43 20 -65.5 32.5t-52.5 36t-43.5 55t-13.5 72.5q0 90 64.5 138.5t155.5 48.5q119 0 184 -72l-50 -55 q-48 61 -140 61q-59 0 -100.5 -30t-41.5 -86q0 -27 10 -48t32.5 -38t40.5 -27t52 -25q43 -20 65 -32t49.5 -33.5t39.5 -49t12 -63.5z"/>
<glyph glyph-name="T" horiz-adv-x="596" unicode="T" d="M277 0h-74l137 590h-233l15 68h540l-15 -68h-233z"/>
<glyph glyph-name="U" horiz-adv-x="652" unicode="U" d="M674 658l-101 -438q-26 -113 -110 -173.5t-181 -60.5q-87 0 -145.5 49.5t-58.5 138.5q0 28 8 65l96 419h74l-97 -420q-6 -27 -6 -50q0 -64 39.5 -98.5t97.5 -34.5q70 0 131 47.5t81 132.5l98 423h74z"/>
<glyph glyph-name="V" horiz-adv-x="610" unicode="V" d="M283 0h-76l-95 658h77l77 -550l331 550h85z"/>
<glyph glyph-name="W" horiz-adv-x="955" unicode="W" d="M655 0h-77l-41 520l-280 -520h-77l-68 658h75l54 -540l287 540h71l41 -542l300 542h87z"/>
<glyph glyph-name="X" horiz-adv-x="641" unicode="X" d="M551 0h-93l-127 268l-256 -268h-105l328 337l-154 321h87l124 -265l252 265h101l-320 -330z"/>
<glyph glyph-name="Y" horiz-adv-x="598" unicode="Y" d="M281 0h-74l65 280l-160 378h82l125 -311l269 311h92l-334 -378z"/>
<glyph glyph-name="Z" horiz-adv-x="578" unicode="Z" d="M15 62l481 528h-341l16 68h440l-15 -61l-480 -529h372l-15 -68h-472z"/>
<glyph glyph-name="bracketleft" horiz-adv-x="271" unicode="[" d="M-14 -147l205 888h171l-15 -66h-97l-174 -756h97l-16 -66h-171z"/>
<glyph glyph-name="backslash" horiz-adv-x="348" unicode="\" d="M278 -3l-59 -12l-110 658l60 11z"/>
<glyph glyph-name="bracketright" horiz-adv-x="282" unicode="]" d="M298 741l-205 -888h-171l15 66h97l174 756h-97l16 66h171z"/>
<glyph glyph-name="asciicircum" horiz-adv-x="517" unicode="^" d="M469 398l-121 169l-219 -176l-45 60l280 224l165 -234z"/>
<glyph glyph-name="underscore" horiz-adv-x="486" unicode="_" d="M381 66l-15 -66h-355l15 66h355z"/>
<glyph glyph-name="grave" horiz-adv-x="235" unicode="`" d="M95 627l21 71l206 -64l-22 -70z"/>
<glyph glyph-name="a" horiz-adv-x="634" unicode="a" d="M257 58q86 0 139.5 64.5t53.5 145.5q0 64 -36 107.5t-106 43.5q-87 0 -138.5 -65.5t-51.5 -147.5q0 -64 35 -106t104 -42zM558 64l15 -54q-33 -18 -66 -18q-36 0 -60 19.5t-28 59.5q-60 -80 -169 -80q-99 0 -151 63t-52 152q0 109 72 194.5t190 85.5q62 0 107.5 -26.5 t64.5 -75.5l19 90h71l-83 -361q-2 -12 -2 -17q0 -40 40 -40q16 0 32 8z"/>
<glyph glyph-name="b" horiz-adv-x="595" unicode="b" d="M287 58q88 0 142.5 65.5t54.5 147.5q0 63 -35 105.5t-99 42.5q-80 0 -143 -62t-63 -155q0 -73 41 -108.5t102 -35.5zM363 486q93 0 143 -60t50 -150q0 -123 -85 -204t-189 -81q-53 0 -97 24t-68 72l-21 -87h-71l152 658h71l-57 -250q69 78 172 78z"/>
<glyph glyph-name="c" horiz-adv-x="519" unicode="c" d="M422 158l50 -41q-35 -62 -95.5 -94.5t-127.5 -32.5q-96 0 -149.5 63t-53.5 153q0 69 29.5 131.5t93 105.5t148.5 43q122 0 178 -91l-56 -42q-40 67 -129 67t-141 -64t-52 -145q0 -66 36.5 -110.5t102.5 -44.5q50 0 95 27t71 75z"/>
<glyph glyph-name="d" horiz-adv-x="596" unicode="d" d="M447 270v5q0 63 -35 103.5t-104 40.5q-88 0 -139.5 -65.5t-51.5 -146.5q0 -64 35 -106.5t101 -42.5q84 0 138 66t56 146zM462 0h-71l14 64q-65 -73 -157 -73q-98 0 -150 63t-52 152q0 109 72.5 194.5t188.5 85.5q61 0 106.5 -26.5t65.5 -76.5l63 275h71z"/>
<glyph glyph-name="e" horiz-adv-x="540" unicode="e" d="M128 270h296q2 18 2 25q0 59 -36 92t-89 33q-59 0 -108.5 -39.5t-64.5 -110.5zM424 134l42 -46q-95 -99 -218 -99q-96 0 -148.5 64t-52.5 156q0 109 72 192.5t197 84.5q88 0 136 -55.5t48 -138.5q0 -40 -14 -88h-365q-1 -73 40 -110.5t102 -37.5q44 0 88 20.5t73 57.5z "/>
<glyph glyph-name="f" horiz-adv-x="359" unicode="f" d="M342 675q68 0 103 -40l-45 -50q-26 27 -63 27q-29 0 -52.5 -18.5t-31.5 -53.5l-15 -66h122l-15 -66h-122l-94 -408h-71l94 408h-82l15 66h83l17 76q14 62 58.5 93.5t98.5 31.5z"/>
<glyph glyph-name="g" horiz-adv-x="590" unicode="g" d="M267 82q86 0 138 58.5t52 132.5q0 61 -38 103t-111 42q-87 0 -138 -58t-51 -132q0 -62 38.5 -104t109.5 -42zM576 474l-112 -484q-23 -101 -99.5 -155.5t-166.5 -54.5q-79 0 -138.5 42.5t-69.5 117.5l67 24q7 -57 49 -87.5t99 -30.5q65 0 120.5 41t71.5 116l18 79 q-66 -67 -165 -67q-97 0 -149.5 58.5t-52.5 144.5q0 104 72 186t195 82q125 0 169 -96l20 84h72z"/>
<glyph glyph-name="h" horiz-adv-x="550" unicode="h" d="M365 486q61 0 102 -34.5t41 -96.5q0 -22 -6 -46l-71 -309h-71l65 284q5 20 5 43q0 44 -24.5 67.5t-65.5 23.5q-60 0 -113 -45.5t-71 -121.5l-59 -251h-72l152 658h71l-61 -266q31 46 79 70t99 24z"/>
<glyph glyph-name="i" horiz-adv-x="240" unicode="i" d="M140 474h71l-109 -474h-71zM149 618q0 22 15.5 38t38.5 16t38.5 -16t15.5 -38t-15.5 -38t-38.5 -16t-38.5 16t-15.5 38z"/>
<glyph glyph-name="j" horiz-adv-x="282" unicode="j" d="M243 475l-129 -558q-16 -68 -57 -102.5t-92 -34.5q-52 0 -92 37l40 54q24 -27 55 -27q26 0 47 19.5t29 55.5l128 556h71zM235 672q23 0 38.5 -16t15.5 -38t-15.5 -38t-38.5 -16t-38.5 16t-15.5 38t15.5 38t38.5 16z"/>
<glyph glyph-name="k" horiz-adv-x="490" unicode="k" d="M430 0h-95l-186 228l-53 -228h-71l152 658h71l-91 -396l267 212h106l-298 -236z"/>
<glyph glyph-name="l" horiz-adv-x="294" unicode="l" d="M219 62l13 -52q-40 -20 -80 -20q-46 0 -75 26.5t-29 79.5q0 23 6 50l118 512h71l-121 -526q-4 -15 -4 -30q0 -50 50 -50q23 0 51 10z"/>
<glyph glyph-name="m" horiz-adv-x="801" unicode="m" d="M755 321l-74 -321h-71l67 288q6 27 6 48q0 82 -77 82q-50 0 -93.5 -38t-59.5 -107l-64 -273h-71l67 288q6 27 6 48q0 82 -77 82q-50 0 -93.5 -37.5t-59.5 -107.5l-64 -273h-71l109 474h71l-14 -61q23 35 64 54t85 19q46 0 79.5 -22t40.5 -66q27 42 73 65t94 23 q57 0 94.5 -31.5t37.5 -90.5q0 -23 -5 -43z"/>
<glyph glyph-name="n" horiz-adv-x="551" unicode="n" d="M431 0h-71l65 284q5 20 5 43q0 44 -24.5 67.5t-65.5 23.5q-60 0 -113 -45.5t-71 -121.5l-59 -251h-71l109 474h71l-19 -82q31 46 79 70t99 24q61 0 102 -34.5t41 -96.5q0 -22 -6 -46z"/>
<glyph glyph-name="o" horiz-adv-x="575" unicode="o" d="M314 421q-81 0 -139 -60t-58 -147q0 -70 40.5 -114t109.5 -44q82 0 139.5 60t57.5 146q0 71 -41 115t-109 44zM323 486q96 0 154 -60.5t58 -156.5q0 -116 -82 -197.5t-195 -81.5q-96 0 -154 60.5t-58 155.5q0 116 81.5 198t195.5 82z"/>
<glyph glyph-name="p" horiz-adv-x="595" unicode="p" d="M287 58q88 0 142.5 64.5t54.5 145.5q0 60 -35 103.5t-99 43.5q-92 0 -148.5 -65.5t-56.5 -146.5q0 -62 36 -103.5t106 -41.5zM363 482q92 0 142.5 -60.5t50.5 -144.5q0 -126 -85.5 -206t-189.5 -80q-52 0 -95.5 24.5t-68.5 71.5l-68 -295h-71l157 682h71l-15 -66 q66 74 172 74z"/>
<glyph glyph-name="q" horiz-adv-x="597" unicode="q" d="M447 270v5q0 60 -35 100t-104 40q-88 0 -139.5 -64.5t-51.5 -143.5q0 -64 35 -106.5t101 -42.5q84 0 138 66t56 146zM413 -208h-71l63 272q-65 -73 -157 -73q-98 0 -150 63t-52 152q0 106 72.5 191t188.5 85q61 0 106.5 -26t65.5 -73l21 91h71z"/>
<glyph glyph-name="r" horiz-adv-x="356" unicode="r" d="M325 480q39 0 64 -13l-33 -70q-26 13 -54 13q-50 0 -88 -35.5t-53 -98.5l-64 -276h-71l109 474h71l-15 -64q53 70 134 70z"/>
<glyph glyph-name="s" horiz-adv-x="450" unicode="s" d="M252 261q38 -9 58.5 -15.5t44.5 -19.5t34.5 -33.5t10.5 -49.5q0 -71 -61 -112t-141 -41q-117 0 -191 82l55 53q22 -33 63.5 -51t86.5 -18q50 0 83 20.5t33 53.5q0 16 -7.5 27t-27 19t-31.5 12t-42 11q-35 8 -57 16.5t-45 23.5t-34.5 39t-11.5 57q0 52 30 87.5t71 49.5 t89 14q91 0 157 -53l-44 -53q-47 43 -124 43q-47 0 -79 -22t-32 -60q0 -35 26.5 -50.5t85.5 -29.5z"/>
<glyph glyph-name="t" horiz-adv-x="377" unicode="t" d="M286 78l23 -50q-53 -38 -112 -38q-47 0 -77.5 28t-30.5 80q0 22 6 47l60 263h-90l15 66h90l28 121h71l-28 -121h118l-15 -66h-118l-63 -275q-4 -20 -4 -28q0 -53 55 -53q36 0 72 26z"/>
<glyph glyph-name="u" horiz-adv-x="543" unicode="u" d="M418 0h-71l19 85q-32 -46 -79.5 -70.5t-94.5 -24.5q-57 0 -96.5 35t-39.5 101q0 24 6 53l68 295h70l-67 -288q-5 -25 -5 -41q0 -43 24 -65.5t62 -22.5q57 0 112.5 46.5t73.5 126.5l57 244h70z"/>
<glyph glyph-name="v" horiz-adv-x="492" unicode="v" d="M233 0h-72l-81 474h77l60 -375l232 375h83z"/>
<glyph glyph-name="w" horiz-adv-x="819" unicode="w" d="M571 0h-76l-46 381l-223 -381h-76l-65 474h76l44 -376l219 376h81l49 -369l214 369h86z"/>
<glyph glyph-name="x" horiz-adv-x="535" unicode="x" d="M446 0h-84l-102 181l-186 -181h-100l251 242l-135 232h88l99 -178l181 178h102l-249 -239z"/>
<glyph glyph-name="y" horiz-adv-x="560" unicode="y" d="M544 474l-111 -477q-25 -106 -95 -161.5t-154 -55.5q-74 0 -129.5 42t-69.5 115l69 23q8 -55 47 -84.5t89 -29.5q58 0 108 38.5t66 113.5l21 98q-31 -45 -77 -68t-93 -23q-63 0 -107 39t-44 108q0 23 6 50l62 272h71l-61 -268q-5 -23 -5 -39q0 -46 28 -70.5t71 -24.5 q60 0 112.5 48t70.5 124l54 230h71z"/>
<glyph glyph-name="z" horiz-adv-x="518" unicode="z" d="M418 0h-408l16 68l369 339h-280l16 67h382l-16 -67l-372 -339h309z"/>
<glyph glyph-name="braceleft" horiz-adv-x="362" unicode="{" d="M154 414l48 204q7 31 20.5 53t29.5 34.5t40 19t45 8.5t53 2l-18 -64q-12 2 -19 2q-28 0 -51.5 -15t-31.5 -46l-50 -212q-11 -43 -41.5 -70t-65.5 -33q27 -5 45 -24.5t18 -51.5q0 -12 -3 -27l-46 -193q-2 -6 -2 -18q0 -28 23 -41.5t52 -13.5h3l-14 -61q-54 0 -93 25 t-39 79q0 19 4 36l41 181q3 14 3 24q0 43 -56 43l21 92q68 0 84 67z"/>
<glyph glyph-name="bar" horiz-adv-x="284" unicode="|" d="M95 -127h-74l191 827h74z"/>
<glyph glyph-name="braceright" horiz-adv-x="351" unicode="}" d="M210 188l-48 -204q-7 -31 -20.5 -53t-29.5 -34.5t-40 -19t-45 -8.5t-53 -2l18 64q12 -2 19 -2q28 0 51.5 15t31.5 46l50 212q11 43 41.5 70t65.5 33q-27 5 -45 24.5t-18 51.5q0 12 3 27l46 193q2 6 2 18q0 28 -23 41.5t-52 13.5h-3l14 61q54 0 93 -25t39 -79 q0 -19 -4 -36l-41 -181q-3 -14 -3 -24q0 -43 56 -43l-21 -92q-68 0 -84 -67z"/>
<glyph glyph-name="asciitilde" horiz-adv-x="598" unicode="~" d="M517 377l61 -33q-55 -132 -150 -132q-40 0 -77.5 24t-71 48.5t-63.5 24.5q-57 0 -105 -88l-61 38q62 126 163 126q35 0 68.5 -14.5t55 -31.5t46 -31.5t44.5 -14.5q52 0 90 84z"/>
<glyph glyph-name="exclamdown" horiz-adv-x="305" unicode="¡" d="M200 387l-104 -504h-86l129 504h61zM142 529q0 23 16.5 39.5t39.5 16.5t39.5 -16.5t16.5 -39.5q0 -24 -16.5 -40t-39.5 -16t-39.5 16t-16.5 40z"/>
<glyph glyph-name="cent" horiz-adv-x="519" unicode="¢" d="M256 56q50 0 95 27t71 75l50 -41q-35 -62 -95.5 -94.5t-127.5 -32.5h-15l-21 -88h-59l23 99q-63 22 -97 78t-34 127q0 102 64.5 185t178.5 94l19 83h59l-19 -84q97 -9 147 -89l-56 -42q-40 67 -129 67t-141 -64t-52 -145q0 -66 36.5 -110.5t102.5 -44.5z"/>
<glyph glyph-name="sterling" horiz-adv-x="633" unicode="£" d="M145 45q48 0 74 66q-30 33 -62 33q-27 0 -42 -16t-15 -37q0 -19 12 -32.5t33 -13.5zM427 48q63 0 107 84l52 -36q-67 -112 -169 -112q-74 0 -155 81q-52 -80 -126 -80q-47 0 -72.5 29t-25.5 69q0 50 34 85t88 35q45 0 78 -33q10 28 25 91l27 117h-102l14 56h101l27 116 q14 62 58.5 93.5t98.5 31.5q68 0 103 -40l-45 -50q-25 27 -63 27q-29 0 -52.5 -18.5t-31.5 -53.5l-24 -106h153l-14 -56h-152l-27 -117q-22 -96 -41 -137q29 -25 47 -38.5t42.5 -25.5t44.5 -12z"/>
<glyph glyph-name="currency" horiz-adv-x="666" unicode="¤" d="M321 128q66 0 112.5 47t46.5 115q0 55 -33 89.5t-86 34.5q-66 0 -113 -47t-47 -115q0 -55 33 -89.5t87 -34.5zM550 299q0 -89 -56 -156l91 -105l-50 -44l-89 105q-62 -43 -135 -43q-72 0 -121 44l-120 -106l-42 50l124 107q-21 41 -21 92q0 89 56 156l-91 105l49 44 l89 -105q62 43 137 43q73 0 120 -44l122 107l41 -50l-124 -109q20 -40 20 -91z"/>
<glyph glyph-name="yen" horiz-adv-x="598" unicode="¥" d="M353 288h150l-13 -55h-155l-22 -95h155l-13 -55h-155l-19 -83h-74l19 83h-168l13 55h168l22 95h-168l13 55h163l-157 370h82l125 -311l269 311h92z"/>
<glyph glyph-name="brokenbar" horiz-adv-x="285" unicode="¦" d="M96 -127h-74l84 367h74zM202 333h-74l85 367h74z"/>
<glyph glyph-name="section" horiz-adv-x="562" unicode="§" d="M316 261q33 0 58 24t25 57q0 27 -18 45.5t-45 18.5q-34 0 -59 -24t-25 -57q0 -27 18 -45.5t46 -18.5zM454 287q49 -42 49 -106q0 -94 -68.5 -145t-164.5 -51q-67 0 -126.5 26.5t-92.5 76.5l54 52q23 -42 70.5 -64.5t100.5 -22.5q63 0 107 29.5t44 83.5q0 34 -23 59 q-45 -34 -98 -34q-54 0 -89 35t-35 88q0 13 1 20l3 22q-25 22 -42.5 54.5t-17.5 65.5q0 96 67 147.5t160 51.5q111 0 179 -68l-50 -55q-45 57 -136 57q-60 0 -103 -32t-43 -89q0 -39 26 -65q51 53 120 53q53 0 88 -36t35 -89q0 -32 -15 -64z"/>
<glyph glyph-name="dieresis" horiz-adv-x="340" unicode="¨" d="M422 620q0 -23 -16 -39t-39 -16t-38.5 16t-15.5 39q0 22 15.5 38t38.5 16t39 -16t16 -38zM204 620q0 -23 -15.5 -39t-37.5 -16q-23 0 -39.5 16t-16.5 39q0 22 16.5 38t39.5 16q22 0 37.5 -16t15.5 -38z"/>
<glyph glyph-name="copyright" horiz-adv-x="814" unicode="©" d="M538 288l57 -39q-24 -46 -67.5 -71.5t-92.5 -25.5q-72 0 -124.5 49.5t-52.5 134.5q0 87 53 135.5t127 48.5q89 0 143 -70l-52 -49q-29 47 -88 47q-43 0 -75 -29.5t-32 -81.5t31.5 -82t73.5 -30q68 0 99 63zM434 37q121 0 203 83.5t82 212.5t-82 212.5t-203 83.5 t-203 -83.5t-82 -212.5t82 -212.5t203 -83.5zM434 684q149 0 248 -100t99 -251t-99 -251t-248 -100t-248 100t-99 251t99 251t248 100z"/>
<glyph glyph-name="ordfeminine" horiz-adv-x="567" unicode="ª" d="M282 341q66 0 106 50.5t40 112.5q0 45 -26 75t-76 30q-66 0 -104.5 -48.5t-38.5 -109.5q0 -47 25.5 -78.5t73.5 -31.5zM548 355l7 -52q-31 -26 -71 -26q-33 0 -56 19t-22 55q-52 -74 -134 -74q-77 0 -118 49t-41 120q0 87 61.5 156t166.5 69q77 0 119 -55l12 49h69 l-60 -258q-3 -13 -3 -25q0 -36 32 -36q17 0 38 9z"/>
<glyph glyph-name="guillemotleft" horiz-adv-x="559" unicode="«" d="M474 85l-56 -36l-132 212l230 212l46 -51l-189 -169zM224 85l-56 -36l-132 212l230 212l46 -51l-189 -169z"/>
<glyph glyph-name="logicalnot" horiz-adv-x="490" unicode="¬" d="M441 307l-38 -166h-71l23 100h-289l15 66h360z"/>
<glyph glyph-name="registered" horiz-adv-x="814" unicode="®" d="M387 350h62q24 0 36 13t12 32q0 18 -11.5 30.5t-35.5 12.5h-63v-88zM565 399q0 -34 -17.5 -60.5t-52.5 -37.5l82 -124h-83l-66 105h-41v-105h-69v327h131q54 0 85 -31.5t31 -73.5zM434 37q121 0 203 83.5t82 212.5t-82 212.5t-203 83.5t-203 -83.5t-82 -212.5t82 -212.5 t203 -83.5zM434 684q149 0 248 -100t99 -251t-99 -251t-248 -100t-248 100t-99 251t99 251t248 100z"/>
<glyph glyph-name="macron" horiz-adv-x="290" unicode="¯" d="M376 635l-16 -71h-279l16 71h279z"/>
<glyph glyph-name="degree" horiz-adv-x="456" unicode="°" d="M194 502q0 -42 27 -69t67 -27q41 0 67 27t26 69q0 43 -26 70t-67 27q-40 0 -67 -27.5t-27 -69.5zM121 502q0 71 48.5 121t118.5 50q71 0 120.5 -50t49.5 -121q0 -69 -49.5 -117.5t-120.5 -48.5q-70 0 -118.5 48.5t-48.5 117.5z"/>
<glyph glyph-name="plusminus" horiz-adv-x="457" unicode="±" d="M57 166h344l-16 -66h-344zM316 410l-32 -139h-69l32 139h-137l16 66h137l32 139h69l-32 -139h137l-16 -66h-137z"/>
<glyph glyph-name="twosuperior" horiz-adv-x="327" unicode="²" d="M310 317h-235l13 55l85 72q6 5 26.5 22t30 25.5t23 23t19 26.5t5.5 23q0 16 -11 25.5t-27 9.5q-21 0 -42 -13.5t-30 -37.5l-55 23q16 46 57.5 72t87.5 26q41 0 68 -21.5t27 -64.5q0 -17 -5.5 -34t-11.5 -28.5t-21.5 -28.5t-22 -23.5t-27.5 -25t-26 -22.5l-39 -35h127z "/>
<glyph glyph-name="threesuperior" horiz-adv-x="331" unicode="³" d="M295 501q43 -26 43 -71q0 -52 -42.5 -85t-99.5 -33q-38 0 -73 16.5t-55 49.5l63 47q23 -43 70 -43q24 0 41 12t17 32q0 18 -15.5 30t-42.5 12h-17l13 55h15q28 0 47 14.5t19 33.5q0 28 -36 28q-46 0 -70 -36l-46 40q22 32 57.5 48.5t72.5 16.5q44 0 74 -22t30 -61 q0 -28 -17.5 -50.5t-47.5 -33.5z"/>
<glyph glyph-name="acute" horiz-adv-x="238" unicode="´" d="M302 698l21 -71l-205 -63l-22 70z"/>
<glyph glyph-name="paragraph" horiz-adv-x="547" unicode="¶" d="M369 590h-49q-73 0 -115 -38.5t-42 -89.5q0 -42 30.5 -72t87.5 -30h35zM407 0h-59l136 590h-56l-136 -590h-59l67 292h-33q-85 0 -131 47.5t-46 115.5q0 80 62.5 141.5t171.5 61.5h235z"/>
<glyph glyph-name="periodcentered" horiz-adv-x="219" unicode="·" d="M131 392q26 0 44.5 -18.5t18.5 -44.5t-18.5 -45t-44.5 -19t-44.5 19t-18.5 45t18.5 44.5t44.5 18.5z"/>
<glyph glyph-name="cedilla" horiz-adv-x="229" unicode="¸" d="M56 24l-26 -72q104 -20 104 -91q0 -50 -33 -75.5t-82 -25.5q-67 0 -114 43l34 45q36 -34 74 -34q26 0 45 12t19 35q0 26 -24.5 40t-81.5 24l31 99h54z"/>
<glyph glyph-name="onesuperior" horiz-adv-x="205" unicode="¹" d="M182 595h-63l15 69h135l-80 -346h-72z"/>
<glyph glyph-name="ordmasculine" horiz-adv-x="477" unicode="º" d="M313 612q-63 0 -107.5 -45t-44.5 -111q0 -52 31 -85.5t82 -33.5q63 0 107.5 45.5t44.5 111.5q0 52 -31.5 85t-81.5 33zM322 675q77 0 126 -50.5t49 -126.5q0 -92 -68.5 -158.5t-163.5 -66.5q-77 0 -126 50.5t-49 126.5q0 92 68.5 158.5t163.5 66.5z"/>
<glyph glyph-name="guillemotright" horiz-adv-x="578" unicode="»" d="M352 437l56 36l132 -212l-230 -212l-46 51l189 169zM102 437l56 36l132 -212l-230 -212l-46 51l189 169z"/>
<glyph glyph-name="onequarter" horiz-adv-x="779" unicode="¼" d="M620 259l-123 -124h92zM708 66h-68l-17 -66h-68l17 66h-181l14 56l224 222h80l-52 -209h68zM64 100l533 506l45 -45l-534 -508zM153 595h-63l15 69h135l-80 -346h-72z"/>
<glyph glyph-name="onehalf" horiz-adv-x="775" unicode="½" d="M694 0h-235l13 55l85 72q6 5 26.5 22t30 25.5t23 23t19 26.5t5.5 23q0 16 -11 25.5t-27 9.5q-21 0 -42 -13.5t-30 -37.5l-55 23q16 46 57.5 72t87.5 26q41 0 68 -22t27 -64q0 -17 -5.5 -34t-11.5 -28.5t-21.5 -28.5t-22 -23.5t-27.5 -25t-26 -22.5l-39 -35h127zM98 100 l533 506l45 -45l-534 -508zM187 595h-63l15 69h135l-80 -346h-72z"/>
<glyph glyph-name="threequarters" horiz-adv-x="853" unicode="¾" d="M694 259l-123 -124h92zM782 66h-68l-17 -66h-68l17 66h-181l14 56l224 222h80l-52 -209h68zM138 100l533 506l45 -45l-534 -508zM290 501q43 -26 43 -71q0 -52 -42.5 -85t-99.5 -33q-38 0 -73 16.5t-55 49.5l63 47q23 -43 70 -43q24 0 41 12t17 32q0 18 -15.5 30 t-42.5 12h-17l13 55h15q28 0 47 14.5t19 33.5q0 28 -36 28q-46 0 -70 -36l-46 40q22 32 57.5 48.5t72.5 16.5q44 0 74 -22t30 -61q0 -28 -17.5 -50.5t-47.5 -33.5z"/>
<glyph glyph-name="questiondown" horiz-adv-x="492" unicode="¿" d="M264 380h76l-42 -180h-55q-84 0 -132.5 -45.5t-48.5 -102.5q0 -44 30 -74t84 -30q84 0 147 67l48 -41q-40 -45 -95.5 -68t-110.5 -23q-83 0 -129 48t-46 117q0 78 65 140t181 68zM329 456q-23 0 -39.5 16t-16.5 39q0 24 16.5 40.5t39.5 16.5t39.5 -16.5t16.5 -40.5 q0 -23 -16.5 -39t-39.5 -16z"/>
<glyph glyph-name="Agrave" d="M408 569l-193 -320h238zM174 181l-108 -181h-86l407 658h72l104 -658h-74l-26 181h-289zM294 777l21 71l206 -64l-22 -70z" unicode="À"/>
<glyph glyph-name="Aacute" d="M408 569l-193 -320h238zM174 181l-108 -181h-86l407 658h72l104 -658h-74l-26 181h-289zM553 849l21 -71l-205 -63l-22 70z" unicode="Á"/>
<glyph glyph-name="Acircumflex" d="M408 569l-193 -320h238zM174 181l-108 -181h-86l407 658h72l104 -658h-74l-26 181h-289zM545 715l-85 89l-147 -95l-37 56l195 124l125 -129z" unicode="Â"/>
<glyph glyph-name="Atilde" d="M408 569l-193 -320h238zM174 181l-108 -181h-86l407 658h72l104 -658h-74l-26 181h-289zM514 716q-25 0 -63 27.5t-53 27.5q-7 0 -13 -2.5t-13.5 -10l-11 -11t-12.5 -15.5t-11 -14l-49 38q55 88 107 88q26 0 67.5 -29.5t53.5 -29.5q4 0 8.5 1.5t9 5t7.5 7t8 9.5t7.5 9.5 t7.5 11.5t7 11l44 -34q-20 -31 -30.5 -45.5t-30 -29.5t-40.5 -15z" unicode="Ã"/>
<glyph glyph-name="Adieresis" d="M408 569l-193 -320h238zM174 181l-108 -181h-86l407 658h72l104 -658h-74l-26 181h-289zM611 769q0 -23 -16 -39t-39 -16t-38.5 16t-15.5 39t16 38.5t38 15.5q23 0 39 -16t16 -38zM393 769q0 -23 -15.5 -39t-37.5 -16q-23 0 -39.5 16t-16.5 39q0 22 16.5 38t39.5 16 q22 0 37.5 -16t15.5 -38z" unicode="Ä"/>
<glyph glyph-name="Aring" d="M408 569l-193 -320h238zM174 181l-108 -181h-86l407 658h72l104 -658h-74l-26 181h-289zM391 830q0 -27 17 -45t44 -18q26 0 43.5 18t17.5 45q0 26 -17.5 44.5t-43.5 18.5q-27 0 -44 -18t-17 -45zM335 830q0 49 33.5 83.5t83.5 34.5q49 0 84 -34.5t35 -83.5t-35 -82.5 t-84 -33.5q-50 0 -83.5 33t-33.5 83z" unicode="Å"/>
<glyph glyph-name="AE" horiz-adv-x="871" unicode="Æ" d="M530 593h-63l-233 -344h216zM603 590l-51 -225h240l-16 -68h-240l-53 -229h304l-16 -68h-378l42 180h-247l-122 -180h-86l451 658h484l-16 -68h-296z"/>
<glyph glyph-name="Ccedilla" horiz-adv-x="694" unicode="Ç" d="M470 606q-96 0 -172 -53.5t-114 -130.5t-38 -157q0 -100 57 -154t142 -54q69 0 137 37t114 105l53 -40q-57 -84 -143 -129t-174 -45q-16 0 -24 1l-16 -44q104 -20 104 -91q0 -50 -33 -75.5t-82 -25.5q-67 0 -114 43l34 45q36 -34 74 -34q26 0 45 12t19 35q0 26 -24.5 40 t-81.5 24l25 79q-83 22 -134.5 91.5t-51.5 179.5q0 90 35.5 168t93.5 130.5t131.5 82t150.5 29.5q139 0 226 -100l-56 -48q-71 79 -183 79z"/>
<glyph glyph-name="Egrave" horiz-adv-x="528" unicode="È" d="M250 590l-51 -225h250l-16 -68h-250l-53 -229h314l-16 -68h-388l152 658h380l-16 -68h-306zM273 777l21 71l206 -64l-22 -70z"/>
<glyph glyph-name="Eacute" horiz-adv-x="528" unicode="É" d="M250 590l-51 -225h250l-16 -68h-250l-53 -229h314l-16 -68h-388l152 658h380l-16 -68h-306zM513 849l21 -71l-205 -63l-22 70z"/>
<glyph glyph-name="Ecircumflex" horiz-adv-x="528" unicode="Ê" d="M250 590l-51 -225h250l-16 -68h-250l-53 -229h314l-16 -68h-388l152 658h380l-16 -68h-306zM493 715l-85 89l-147 -95l-37 56l195 124l125 -129z"/>
<glyph glyph-name="Edieresis" horiz-adv-x="528" unicode="Ë" d="M250 590l-51 -225h250l-16 -68h-250l-53 -229h314l-16 -68h-388l152 658h380l-16 -68h-306zM551 769q0 -23 -16 -39t-39 -16t-38.5 16t-15.5 39t16 38.5t38 15.5q23 0 39 -16t16 -38zM333 769q0 -23 -15.5 -39t-37.5 -16q-23 0 -39.5 16t-16.5 39q0 22 16.5 38t39.5 16 q22 0 37.5 -16t15.5 -38z"/>
<glyph glyph-name="Igrave" horiz-adv-x="264" unicode="Ì" d="M197 658h74l-152 -658h-74zM124 777l21 71l206 -64l-22 -70z"/>
<glyph glyph-name="Iacute" horiz-adv-x="264" unicode="Í" d="M197 658h74l-152 -658h-74zM363 849l21 -71l-205 -63l-22 70z"/>
<glyph glyph-name="Icircumflex" horiz-adv-x="275" unicode="Î" d="M201 658h74l-152 -658h-74zM363 715l-85 89l-147 -95l-37 56l195 124l125 -129z"/>
<glyph glyph-name="Idieresis" horiz-adv-x="278" unicode="Ï" d="M203 658h74l-152 -658h-74zM423 769q0 -23 -16 -39t-39 -16t-38.5 16t-15.5 39t16 38.5t38 15.5q23 0 39 -16t16 -38zM205 769q0 -23 -15.5 -39t-37.5 -16q-23 0 -39.5 16t-16.5 39q0 22 16.5 38t39.5 16q22 0 37.5 -16t15.5 -38z"/>
<glyph glyph-name="Eth" horiz-adv-x="710" unicode="Ð" d="M145 68h144q75 0 138.5 28t103.5 73.5t62 100t22 110.5q0 90 -55 150.5t-159 60.5h-135l-54 -234h146l-13 -55h-146zM207 658h201q137 0 209.5 -79t72.5 -194q0 -70 -28 -137.5t-78.5 -123.5t-131 -90t-176.5 -34h-221l70 302h-145l13 55h144z"/>
<glyph glyph-name="Ntilde" horiz-adv-x="706" unicode="Ñ" d="M566 0h-74l-254 541l-124 -541h-74l152 658h74l253 -539l125 539h74zM522 716q-25 0 -63 27.5t-53 27.5q-7 0 -13 -2.5t-13.5 -10l-11 -11t-12.5 -15.5t-11 -14l-49 38q55 88 107 88q26 0 67.5 -29.5t53.5 -29.5q4 0 8.5 1.5t9 5t7.5 7t8 9.5t7.5 9.5t7.5 11.5t7 11 l44 -34q-20 -31 -30.5 -45.5t-30 -29.5t-40.5 -15z"/>
<glyph glyph-name="Ograve" horiz-adv-x="780" unicode="Ò" d="M455 603q-122 0 -212.5 -90t-90.5 -219q0 -104 63.5 -171.5t162.5 -67.5q122 0 212.5 90t90.5 219q0 104 -64 171.5t-162 67.5zM464 673q129 0 210.5 -85.5t81.5 -215.5q0 -161 -115 -274t-273 -113q-129 0 -210.5 85.5t-81.5 215.5q0 161 115 274t273 113zM349 777 l21 71l206 -64l-22 -70z"/>
<glyph glyph-name="Oacute" horiz-adv-x="780" unicode="Ó" d="M455 603q-122 0 -212.5 -90t-90.5 -219q0 -104 63.5 -171.5t162.5 -67.5q122 0 212.5 90t90.5 219q0 104 -64 171.5t-162 67.5zM464 673q129 0 210.5 -85.5t81.5 -215.5q0 -161 -115 -274t-273 -113q-129 0 -210.5 85.5t-81.5 215.5q0 161 115 274t273 113zM643 849 l21 -71l-205 -63l-22 70z"/>
<glyph glyph-name="Ocircumflex" horiz-adv-x="780" unicode="Ô" d="M455 603q-122 0 -212.5 -90t-90.5 -219q0 -104 63.5 -171.5t162.5 -67.5q122 0 212.5 90t90.5 219q0 104 -64 171.5t-162 67.5zM464 673q129 0 210.5 -85.5t81.5 -215.5q0 -161 -115 -274t-273 -113q-129 0 -210.5 85.5t-81.5 215.5q0 161 115 274t273 113zM595 715 l-85 89l-147 -95l-37 56l195 124l125 -129z"/>
<glyph glyph-name="Otilde" horiz-adv-x="780" unicode="Õ" d="M455 603q-122 0 -212.5 -90t-90.5 -219q0 -104 63.5 -171.5t162.5 -67.5q122 0 212.5 90t90.5 219q0 104 -64 171.5t-162 67.5zM464 673q129 0 210.5 -85.5t81.5 -215.5q0 -161 -115 -274t-273 -113q-129 0 -210.5 85.5t-81.5 215.5q0 161 115 274t273 113zM575 716 q-25 0 -63 27.5t-53 27.5q-7 0 -13 -2.5t-13.5 -10l-11 -11t-12.5 -15.5t-11 -14l-49 38q55 88 107 88q26 0 67.5 -29.5t53.5 -29.5q4 0 8.5 1.5t9 5t7.5 7t8 9.5t7.5 9.5t7.5 11.5t7 11l44 -34q-20 -31 -30.5 -45.5t-30 -29.5t-40.5 -15z"/>
<glyph glyph-name="Odieresis" horiz-adv-x="780" unicode="Ö" d="M455 603q-122 0 -212.5 -90t-90.5 -219q0 -104 63.5 -171.5t162.5 -67.5q122 0 212.5 90t90.5 219q0 104 -64 171.5t-162 67.5zM464 673q129 0 210.5 -85.5t81.5 -215.5q0 -161 -115 -274t-273 -113q-129 0 -210.5 85.5t-81.5 215.5q0 161 115 274t273 113zM653 769 q0 -23 -16 -39t-39 -16t-38.5 16t-15.5 39t16 38.5t38 15.5q23 0 39 -16t16 -38zM435 769q0 -23 -15.5 -39t-37.5 -16q-23 0 -39.5 16t-16.5 39q0 22 16.5 38t39.5 16q22 0 37.5 -16t15.5 -38z"/>
<glyph glyph-name="multiply" horiz-adv-x="381" unicode="×" d="M315 158l-54 -44l-73 96l-118 -96l-41 53l118 96l-69 89l54 44l69 -89l121 98l41 -53l-121 -98z"/>
<glyph glyph-name="Oslash" horiz-adv-x="780" unicode="Ø" d="M378 55q122 0 212.5 90t90.5 219q0 80 -40 140.5t-107 84.5l-205 -529q25 -5 49 -5zM152 294q0 -73 32.5 -129.5t88.5 -85.5l203 523l-21 1q-122 0 -212.5 -90t-90.5 -219zM593 740l-32 -82q90 -28 142.5 -105t52.5 -181q0 -161 -115 -274t-273 -113q-34 0 -65 6 l-39 -100l-55 22l37 96q-79 34 -124.5 108t-45.5 169q0 161 115 274t273 113q13 0 39 -2l35 91z"/>
<glyph glyph-name="Ugrave" horiz-adv-x="652" unicode="Ù" d="M674 658l-101 -438q-26 -113 -110 -173.5t-181 -60.5q-87 0 -145.5 49.5t-58.5 138.5q0 28 8 65l96 419h74l-97 -420q-6 -27 -6 -50q0 -64 39.5 -98.5t97.5 -34.5q70 0 131 47.5t81 132.5l98 423h74zM275 777l21 71l206 -64l-22 -70z"/>
<glyph glyph-name="Uacute" horiz-adv-x="652" unicode="Ú" d="M674 658l-101 -438q-26 -113 -110 -173.5t-181 -60.5q-87 0 -145.5 49.5t-58.5 138.5q0 28 8 65l96 419h74l-97 -420q-6 -27 -6 -50q0 -64 39.5 -98.5t97.5 -34.5q70 0 131 47.5t81 132.5l98 423h74zM560 849l21 -71l-205 -63l-22 70z"/>
<glyph glyph-name="Ucircumflex" horiz-adv-x="652" unicode="Û" d="M674 658l-101 -438q-26 -113 -110 -173.5t-181 -60.5q-87 0 -145.5 49.5t-58.5 138.5q0 28 8 65l96 419h74l-97 -420q-6 -27 -6 -50q0 -64 39.5 -98.5t97.5 -34.5q70 0 131 47.5t81 132.5l98 423h74zM539 715l-85 89l-147 -95l-37 56l195 124l125 -129z"/>
<glyph glyph-name="Udieresis" horiz-adv-x="652" unicode="Ü" d="M674 658l-101 -438q-26 -113 -110 -173.5t-181 -60.5q-87 0 -145.5 49.5t-58.5 138.5q0 28 8 65l96 419h74l-97 -420q-6 -27 -6 -50q0 -64 39.5 -98.5t97.5 -34.5q70 0 131 47.5t81 132.5l98 423h74zM597 769q0 -23 -16 -39t-39 -16t-38.5 16t-15.5 39t16 38.5t38 15.5 q23 0 39 -16t16 -38zM379 769q0 -23 -15.5 -39t-37.5 -16q-23 0 -39.5 16t-16.5 39q0 22 16.5 38t39.5 16q22 0 37.5 -16t15.5 -38z"/>
<glyph glyph-name="Yacute" horiz-adv-x="598" unicode="Ý" d="M281 0h-74l65 280l-160 378h82l125 -311l269 311h92l-334 -378zM543 849l21 -71l-205 -63l-22 70z"/>
<glyph glyph-name="Thorn" horiz-adv-x="539" unicode="Þ" d="M174 260h121q78 0 122.5 42t44.5 94q0 40 -29 67t-83 27h-123zM243 558h120q85 0 129.5 -45.5t44.5 -110.5q0 -82 -67 -146t-178 -64h-133l-45 -192h-74l152 658h74z"/>
<glyph glyph-name="germandbls" horiz-adv-x="522" unicode="ß" d="M346 340q60 -12 91 -48.5t31 -84.5q0 -78 -70 -142.5t-183 -64.5h-68l15 64h66q77 0 122.5 41.5t45.5 94.5q0 46 -37.5 78.5t-107.5 32.5h-22l15 67h22q75 0 124 36.5t49 96.5q0 47 -29.5 74.5t-73.5 27.5q-49 0 -92 -34t-57 -95l-111 -484h-71l114 491q21 87 85.5 135.5 t140.5 48.5q69 0 117 -40.5t48 -112.5q0 -63 -42.5 -115.5t-121.5 -66.5z"/>
<glyph glyph-name="agrave" horiz-adv-x="634" unicode="à" d="M257 58q86 0 139.5 64.5t53.5 145.5q0 64 -36 107.5t-106 43.5q-87 0 -138.5 -65.5t-51.5 -147.5q0 -64 35 -106t104 -42zM558 64l15 -54q-33 -18 -66 -18q-36 0 -60 19.5t-28 59.5q-60 -80 -169 -80q-99 0 -151 63t-52 152q0 109 72 194.5t190 85.5q62 0 107.5 -26.5 t64.5 -75.5l19 90h71l-83 -361q-2 -12 -2 -17q0 -40 40 -40q16 0 32 8zM209 627l21 71l206 -64l-22 -70z"/>
<glyph glyph-name="aacute" horiz-adv-x="634" unicode="á" d="M257 58q86 0 139.5 64.5t53.5 145.5q0 64 -36 107.5t-106 43.5q-87 0 -138.5 -65.5t-51.5 -147.5q0 -64 35 -106t104 -42zM558 64l15 -54q-33 -18 -66 -18q-36 0 -60 19.5t-28 59.5q-60 -80 -169 -80q-99 0 -151 63t-52 152q0 109 72 194.5t190 85.5q62 0 107.5 -26.5 t64.5 -75.5l19 90h71l-83 -361q-2 -12 -2 -17q0 -40 40 -40q16 0 32 8zM512 698l21 -71l-205 -63l-22 70z"/>
<glyph glyph-name="acircumflex" horiz-adv-x="634" unicode="â" d="M257 58q86 0 139.5 64.5t53.5 145.5q0 64 -36 107.5t-106 43.5q-87 0 -138.5 -65.5t-51.5 -147.5q0 -64 35 -106t104 -42zM558 64l15 -54q-33 -18 -66 -18q-36 0 -60 19.5t-28 59.5q-60 -80 -169 -80q-99 0 -151 63t-52 152q0 109 72 194.5t190 85.5q62 0 107.5 -26.5 t64.5 -75.5l19 90h71l-83 -361q-2 -12 -2 -17q0 -40 40 -40q16 0 32 8zM473 555l-85 89l-147 -95l-37 56l195 124l125 -129z"/>
<glyph glyph-name="atilde" horiz-adv-x="634" unicode="ã" d="M257 58q86 0 139.5 64.5t53.5 145.5q0 64 -36 107.5t-106 43.5q-87 0 -138.5 -65.5t-51.5 -147.5q0 -64 35 -106t104 -42zM558 64l15 -54q-33 -18 -66 -18q-36 0 -60 19.5t-28 59.5q-60 -80 -169 -80q-99 0 -151 63t-52 152q0 109 72 194.5t190 85.5q62 0 107.5 -26.5 t64.5 -75.5l19 90h71l-83 -361q-2 -12 -2 -17q0 -40 40 -40q16 0 32 8zM415 565q-25 0 -63 27.5t-53 27.5q-7 0 -13 -2.5t-13.5 -10l-11 -11t-12.5 -15.5t-11 -14l-49 38q55 88 107 88q26 0 67.5 -29.5t53.5 -29.5q4 0 8.5 1.5t9 5t7.5 7t8 9.5t7.5 9.5t7.5 11.5t7 11 l44 -34q-20 -31 -30.5 -45.5t-30 -29.5t-40.5 -15z"/>
<glyph glyph-name="adieresis" horiz-adv-x="634" unicode="ä" d="M257 58q86 0 139.5 64.5t53.5 145.5q0 64 -36 107.5t-106 43.5q-87 0 -138.5 -65.5t-51.5 -147.5q0 -64 35 -106t104 -42zM558 64l15 -54q-33 -18 -66 -18q-36 0 -60 19.5t-28 59.5q-60 -80 -169 -80q-99 0 -151 63t-52 152q0 109 72 194.5t190 85.5q62 0 107.5 -26.5 t64.5 -75.5l19 90h71l-83 -361q-2 -12 -2 -17q0 -40 40 -40q16 0 32 8zM536 620q0 -23 -16 -39t-39 -16t-38.5 16t-15.5 39q0 22 15.5 38t38.5 16t39 -16t16 -38zM318 620q0 -23 -15.5 -39t-37.5 -16q-23 0 -39.5 16t-16.5 39q0 22 16.5 38t39.5 16q22 0 37.5 -16t15.5 -38z "/>
<glyph glyph-name="aring" horiz-adv-x="634" unicode="å" d="M257 58q86 0 139.5 64.5t53.5 145.5q0 64 -36 107.5t-106 43.5q-87 0 -138.5 -65.5t-51.5 -147.5q0 -64 35 -106t104 -42zM558 64l15 -54q-33 -18 -66 -18q-36 0 -60 19.5t-28 59.5q-60 -80 -169 -80q-99 0 -151 63t-52 152q0 109 72 194.5t190 85.5q62 0 107.5 -26.5 t64.5 -75.5l19 90h71l-83 -361q-2 -12 -2 -17q0 -40 40 -40q16 0 32 8zM310 680q0 -27 17 -45t44 -18q26 0 43.5 18t17.5 45q0 26 -17.5 44.5t-43.5 18.5q-27 0 -44 -18t-17 -45zM254 680q0 49 33.5 83.5t83.5 34.5q49 0 84 -34.5t35 -83.5t-35 -82.5t-84 -33.5 q-50 0 -83.5 33t-33.5 83z"/>
<glyph glyph-name="ae" horiz-adv-x="856" unicode="æ" d="M168 55q63 0 117 47.5t68 135.5h-147q-60 0 -91.5 -32.5t-31.5 -74.5q0 -34 22 -55t63 -21zM618 419q-60 0 -108.5 -39.5t-64.5 -109.5h295q2 20 2 27q0 59 -36 90.5t-88 31.5zM802 204h-363v-9q0 -69 40 -104t100 -35q46 0 89.5 20t72.5 57l41 -44q-46 -48 -104 -74 t-114 -26q-68 0 -119 38t-64 105q-36 -69 -96 -105.5t-126 -36.5q-69 0 -107.5 38t-38.5 98q0 73 57.5 122.5t162.5 49.5h132q2 18 2 25q0 50 -29.5 74t-75.5 24q-82 0 -144 -68l-41 51q39 39 92 60.5t105 21.5q60 0 101.5 -29t53.5 -80q36 53 90 81t116 28q89 0 135 -54.5 t46 -138.5q0 -41 -14 -89z"/>
<glyph glyph-name="ccedilla" horiz-adv-x="519" unicode="ç" d="M256 56q50 0 95 27t71 75l50 -41q-35 -62 -95.5 -94.5t-127.5 -32.5l-21 1l-14 -39q104 -20 104 -91q0 -50 -33 -75.5t-82 -25.5q-67 0 -114 43l34 45q36 -34 74 -34q26 0 45 12t19 35q0 26 -24.5 40t-81.5 24l24 76q-64 21 -98.5 77.5t-34.5 127.5q0 69 29.5 131.5 t93 105.5t148.5 43q122 0 178 -91l-56 -42q-40 67 -129 67t-141 -64t-52 -145q0 -66 36.5 -110.5t102.5 -44.5z"/>
<glyph glyph-name="egrave" horiz-adv-x="540" unicode="è" d="M128 270h296q2 18 2 25q0 59 -36 92t-89 33q-59 0 -108.5 -39.5t-64.5 -110.5zM424 134l42 -46q-95 -99 -218 -99q-96 0 -148.5 64t-52.5 156q0 109 72 192.5t197 84.5q88 0 136 -55.5t48 -138.5q0 -40 -14 -88h-365q-1 -73 40 -110.5t102 -37.5q44 0 88 20.5t73 57.5z M203 627l21 71l206 -64l-22 -70z"/>
<glyph glyph-name="eacute" horiz-adv-x="540" unicode="é" d="M128 270h296q2 18 2 25q0 59 -36 92t-89 33q-59 0 -108.5 -39.5t-64.5 -110.5zM424 134l42 -46q-95 -99 -218 -99q-96 0 -148.5 64t-52.5 156q0 109 72 192.5t197 84.5q88 0 136 -55.5t48 -138.5q0 -40 -14 -88h-365q-1 -73 40 -110.5t102 -37.5q44 0 88 20.5t73 57.5z M484 698l21 -71l-205 -63l-22 70z"/>
<glyph glyph-name="ecircumflex" horiz-adv-x="540" unicode="ê" d="M128 270h296q2 18 2 25q0 59 -36 92t-89 33q-59 0 -108.5 -39.5t-64.5 -110.5zM424 134l42 -46q-95 -99 -218 -99q-96 0 -148.5 64t-52.5 156q0 109 72 192.5t197 84.5q88 0 136 -55.5t48 -138.5q0 -40 -14 -88h-365q-1 -73 40 -110.5t102 -37.5q44 0 88 20.5t73 57.5z M459 555l-85 89l-147 -95l-37 56l195 124l125 -129z"/>
<glyph glyph-name="edieresis" horiz-adv-x="540" unicode="ë" d="M128 270h296q2 18 2 25q0 59 -36 92t-89 33q-59 0 -108.5 -39.5t-64.5 -110.5zM424 134l42 -46q-95 -99 -218 -99q-96 0 -148.5 64t-52.5 156q0 109 72 192.5t197 84.5q88 0 136 -55.5t48 -138.5q0 -40 -14 -88h-365q-1 -73 40 -110.5t102 -37.5q44 0 88 20.5t73 57.5z M510 620q0 -23 -16 -39t-39 -16t-38.5 16t-15.5 39q0 22 15.5 38t38.5 16t39 -16t16 -38zM292 620q0 -23 -15.5 -39t-37.5 -16q-23 0 -39.5 16t-16.5 39q0 22 16.5 38t39.5 16q22 0 37.5 -16t15.5 -38z"/>
<glyph glyph-name="igrave" horiz-adv-x="280" unicode="ì" d="M149 474h71l-110 -474h-71zM80 627l21 71l206 -64l-22 -70z"/>
<glyph glyph-name="iacute" horiz-adv-x="200" unicode="í" d="M114 474h71l-110 -474h-71zM325 698l21 -71l-205 -63l-22 70z"/>
<glyph glyph-name="icircumflex" horiz-adv-x="322" unicode="î" d="M155 474h71l-110 -474h-71zM324 555l-85 89l-147 -95l-37 56l195 124l125 -129z"/>
<glyph glyph-name="idieresis" horiz-adv-x="306" unicode="ï" d="M132 474h71l-110 -474h-71zM377 620q0 -23 -16 -39t-39 -16t-38.5 16t-15.5 39q0 22 16 38t38 16q23 0 39 -16t16 -38zM159 620q0 -23 -15.5 -39t-37.5 -16q-23 0 -39.5 16t-16.5 39q0 22 16.5 38t39.5 16q22 0 37.5 -16t15.5 -38z"/>
<glyph glyph-name="eth" horiz-adv-x="543" unicode="ð" d="M246 51q79 0 127 51.5t48 119.5q0 60 -38.5 104t-110.5 44q-79 0 -124.5 -53t-45.5 -123q0 -60 36.5 -101.5t107.5 -41.5zM407 705l-36 -69q75 -39 112.5 -114.5t37.5 -173.5q0 -149 -78.5 -256t-204.5 -107q-96 0 -151 62t-55 149q0 94 63 167t171 73q61 0 110.5 -26 t70.5 -78q1 10 1 29q0 157 -109 214l-43 -83l-52 19l43 84q-41 11 -93 11l14 67q59 0 110 -16l34 67z"/>
<glyph glyph-name="ntilde" horiz-adv-x="551" unicode="ñ" d="M431 0h-71l65 284q5 20 5 43q0 44 -24.5 67.5t-65.5 23.5q-60 0 -113 -45.5t-71 -121.5l-59 -251h-71l109 474h71l-19 -82q31 46 79 70t99 24q61 0 102 -34.5t41 -96.5q0 -22 -6 -46zM438 565q-25 0 -63 27.5t-53 27.5q-7 0 -13 -2.5t-13.5 -10l-11 -11t-12.5 -15.5 t-11 -14l-49 38q55 88 107 88q26 0 67.5 -29.5t53.5 -29.5q4 0 8.5 1.5t9 5t7.5 7t8 9.5t7.5 9.5t7.5 11.5t7 11l44 -34q-20 -31 -30.5 -45.5t-30 -29.5t-40.5 -15z"/>
<glyph glyph-name="ograve" horiz-adv-x="575" unicode="ò" d="M314 421q-81 0 -139 -60t-58 -147q0 -70 40.5 -114t109.5 -44q82 0 139.5 60t57.5 146q0 71 -41 115t-109 44zM323 486q96 0 154 -60.5t58 -156.5q0 -116 -82 -197.5t-195 -81.5q-96 0 -154 60.5t-58 155.5q0 116 81.5 198t195.5 82zM205 627l21 71l206 -64l-22 -70z"/>
<glyph glyph-name="oacute" horiz-adv-x="575" unicode="ó" d="M314 421q-81 0 -139 -60t-58 -147q0 -70 40.5 -114t109.5 -44q82 0 139.5 60t57.5 146q0 71 -41 115t-109 44zM323 486q96 0 154 -60.5t58 -156.5q0 -116 -82 -197.5t-195 -81.5q-96 0 -154 60.5t-58 155.5q0 116 81.5 198t195.5 82zM482 698l21 -71l-205 -63l-22 70z "/>
<glyph glyph-name="ocircumflex" horiz-adv-x="575" unicode="ô" d="M314 421q-81 0 -139 -60t-58 -147q0 -70 40.5 -114t109.5 -44q82 0 139.5 60t57.5 146q0 71 -41 115t-109 44zM323 486q96 0 154 -60.5t58 -156.5q0 -116 -82 -197.5t-195 -81.5q-96 0 -154 60.5t-58 155.5q0 116 81.5 198t195.5 82zM451 555l-85 89l-147 -95l-37 56 l195 124l125 -129z"/>
<glyph glyph-name="otilde" horiz-adv-x="575" unicode="õ" d="M314 421q-81 0 -139 -60t-58 -147q0 -70 40.5 -114t109.5 -44q82 0 139.5 60t57.5 146q0 71 -41 115t-109 44zM323 486q96 0 154 -60.5t58 -156.5q0 -116 -82 -197.5t-195 -81.5q-96 0 -154 60.5t-58 155.5q0 116 81.5 198t195.5 82zM418 565q-25 0 -63 27.5t-53 27.5 q-7 0 -13 -2.5t-13.5 -10l-11 -11t-12.5 -15.5t-11 -14l-49 38q55 88 107 88q26 0 67.5 -29.5t53.5 -29.5q4 0 8.5 1.5t9 5t7.5 7t8 9.5t7.5 9.5t7.5 11.5t7 11l44 -34q-20 -31 -30.5 -45.5t-30 -29.5t-40.5 -15z"/>
<glyph glyph-name="odieresis" horiz-adv-x="575" unicode="ö" d="M314 421q-81 0 -139 -60t-58 -147q0 -70 40.5 -114t109.5 -44q82 0 139.5 60t57.5 146q0 71 -41 115t-109 44zM323 486q96 0 154 -60.5t58 -156.5q0 -116 -82 -197.5t-195 -81.5q-96 0 -154 60.5t-58 155.5q0 116 81.5 198t195.5 82zM522 620q0 -23 -16 -39t-39 -16 t-38.5 16t-15.5 39q0 22 15.5 38t38.5 16t39 -16t16 -38zM304 620q0 -23 -15.5 -39t-37.5 -16q-23 0 -39.5 16t-16.5 39q0 22 16.5 38t39.5 16q22 0 37.5 -16t15.5 -38z"/>
<glyph glyph-name="divide" horiz-adv-x="455" unicode="÷" d="M163 124q0 24 16.5 40t39.5 16t39.5 -16t16.5 -40q0 -23 -16.5 -39.5t-39.5 -16.5t-39.5 16.5t-16.5 39.5zM78 312h344l-16 -66h-344zM212 422q0 24 16.5 40t39.5 16t39.5 -16t16.5 -40q0 -23 -16.5 -39.5t-39.5 -16.5t-39.5 16.5t-16.5 39.5z"/>
<glyph glyph-name="oslash" horiz-adv-x="575" unicode="ø" d="M267 56q82 0 139.5 60t57.5 146q0 52 -22.5 90.5t-62.5 55.5l-136 -351q4 0 11.5 -0.5t12.5 -0.5zM117 214q0 -96 70 -138l133 345h-6q-81 0 -139 -60t-58 -147zM440 566l-36 -93q61 -22 96 -76.5t35 -127.5q0 -116 -82 -197.5t-195 -81.5q-20 0 -40 3l-39 -102l-55 22 l37 97q-54 25 -84.5 76.5t-30.5 119.5q0 116 81.5 198t195.5 82q15 0 22 -1l40 103z"/>
<glyph glyph-name="ugrave" horiz-adv-x="543" unicode="ù" d="M418 0h-71l19 85q-32 -46 -79.5 -70.5t-94.5 -24.5q-57 0 -96.5 35t-39.5 101q0 24 6 53l68 295h70l-67 -288q-5 -25 -5 -41q0 -43 24 -65.5t62 -22.5q57 0 112.5 46.5t73.5 126.5l57 244h70zM195 627l21 71l206 -64l-22 -70z"/>
<glyph glyph-name="uacute" horiz-adv-x="543" unicode="ú" d="M418 0h-71l19 85q-32 -46 -79.5 -70.5t-94.5 -24.5q-57 0 -96.5 35t-39.5 101q0 24 6 53l68 295h70l-67 -288q-5 -25 -5 -41q0 -43 24 -65.5t62 -22.5q57 0 112.5 46.5t73.5 126.5l57 244h70zM474 698l21 -71l-205 -63l-22 70z"/>
<glyph glyph-name="ucircumflex" horiz-adv-x="543" unicode="û" d="M418 0h-71l19 85q-32 -46 -79.5 -70.5t-94.5 -24.5q-57 0 -96.5 35t-39.5 101q0 24 6 53l68 295h70l-67 -288q-5 -25 -5 -41q0 -43 24 -65.5t62 -22.5q57 0 112.5 46.5t73.5 126.5l57 244h70zM442 555l-85 89l-147 -95l-37 56l195 124l125 -129z"/>
<glyph glyph-name="udieresis" horiz-adv-x="543" unicode="ü" d="M418 0h-71l19 85q-32 -46 -79.5 -70.5t-94.5 -24.5q-57 0 -96.5 35t-39.5 101q0 24 6 53l68 295h70l-67 -288q-5 -25 -5 -41q0 -43 24 -65.5t62 -22.5q57 0 112.5 46.5t73.5 126.5l57 244h70zM520 620q0 -23 -16 -39t-39 -16t-38.5 16t-15.5 39q0 22 15.5 38t38.5 16 t39 -16t16 -38zM302 620q0 -23 -15.5 -39t-37.5 -16q-23 0 -39.5 16t-16.5 39q0 22 16.5 38t39.5 16q22 0 37.5 -16t15.5 -38z"/>
<glyph glyph-name="yacute" horiz-adv-x="560" unicode="ý" d="M544 474l-111 -477q-25 -106 -95 -161.5t-154 -55.5q-74 0 -129.5 42t-69.5 115l69 23q8 -55 47 -84.5t89 -29.5q58 0 108 38.5t66 113.5l21 98q-31 -45 -77 -68t-93 -23q-63 0 -107 39t-44 108q0 23 6 50l62 272h71l-61 -268q-5 -23 -5 -39q0 -46 28 -70.5t71 -24.5 q60 0 112.5 48t70.5 124l54 230h71zM481 698l21 -71l-205 -63l-22 70z"/>
<glyph glyph-name="thorn" horiz-adv-x="595" unicode="þ" d="M287 58q88 0 142.5 64.5t54.5 145.5q0 60 -35 103.5t-99 43.5q-92 0 -148.5 -65.5t-56.5 -146.5q0 -62 36 -103.5t106 -41.5zM363 482q92 0 142.5 -60.5t50.5 -144.5q0 -126 -85.5 -206t-189.5 -80q-52 0 -95.5 24.5t-68.5 71.5l-68 -295h-71l199 866h71l-57 -250 q66 74 172 74z"/>
<glyph glyph-name="ydieresis" horiz-adv-x="560" unicode="ÿ" d="M544 474l-111 -477q-25 -106 -95 -161.5t-154 -55.5q-74 0 -129.5 42t-69.5 115l69 23q8 -55 47 -84.5t89 -29.5q58 0 108 38.5t66 113.5l21 98q-31 -45 -77 -68t-93 -23q-63 0 -107 39t-44 108q0 23 6 50l62 272h71l-61 -268q-5 -23 -5 -39q0 -46 28 -70.5t71 -24.5 q60 0 112.5 48t70.5 124l54 230h71zM521 620q0 -23 -16 -39t-39 -16t-38.5 16t-15.5 39q0 22 16 38t38 16q23 0 39 -16t16 -38zM303 620q0 -23 -15.5 -39t-37.5 -16q-23 0 -39.5 16t-16.5 39q0 22 16.5 38t39.5 16q22 0 37.5 -16t15.5 -38z"/>
<glyph glyph-name="dotlessi" horiz-adv-x="200" unicode="ı" d="M114 474h71l-110 -474h-71z"/>
<glyph glyph-name="Lslash" horiz-adv-x="496" unicode="Ł" d="M442 68l-16 -68h-373l72 312l-101 -58l-28 50l146 83l63 271h74l-51 -223l92 52l27 -49l-137 -78l-67 -292h299z"/>
<glyph glyph-name="lslash" horiz-adv-x="299" unicode="ł" d="M173 52q23 0 51 10l13 -52q-40 -20 -80 -20q-46 0 -75 26.5t-29 79.5q0 23 6 50l39 171l-92 -53l-28 50l138 78l61 266h71l-51 -220l105 59l27 -49l-149 -85l-53 -231q-4 -15 -4 -30q0 -50 50 -50z"/>
<glyph glyph-name="OE" horiz-adv-x="855" unicode="Œ" d="M511 590h-41q-75 0 -137.5 -28.5t-102 -74t-61 -100.5t-21.5 -110q0 -89 54 -149t155 -60h34zM755 0h-401q-137 0 -209 80t-72 196q0 70 27 137t76.5 122t127.5 89t171 34h424l-16 -68h-298l-52 -225h242l-15 -68h-242l-53 -229h306z"/>
<glyph glyph-name="oe" horiz-adv-x="950" unicode="œ" d="M711 420q-59 0 -108.5 -39.5t-64.5 -110.5h296q2 18 2 25q0 59 -36 92t-89 33zM265 56q84 0 141.5 60t57.5 148q0 69 -40.5 113t-107.5 44q-83 0 -141 -60t-58 -148q0 -69 40.5 -113t107.5 -44zM896 204h-365q-1 -73 40 -110.5t102 -37.5q44 0 87.5 20.5t73.5 57.5 l42 -46q-95 -99 -218 -99q-65 0 -110.5 30.5t-68.5 81.5q-39 -52 -97.5 -81.5t-125.5 -29.5q-94 0 -152 60.5t-58 154.5q0 118 81.5 199.5t197.5 81.5q63 0 111.5 -28.5t73.5 -78.5q77 106 216 107q88 0 136 -55.5t48 -138.5q0 -40 -14 -88z"/>
<glyph glyph-name="Scaron" horiz-adv-x="560" unicode="Š" d="M501 177q0 -88 -69 -140t-166 -52q-66 0 -124.5 26t-93.5 74l58 53q22 -41 68 -63t98 -22q63 0 108.5 31t45.5 85q0 23 -8.5 41.5t-29.5 33.5t-37 24t-48 24q-43 20 -65.5 32.5t-52.5 36t-43.5 55t-13.5 72.5q0 90 64.5 138.5t155.5 48.5q119 0 184 -72l-50 -55 q-48 61 -140 61q-59 0 -100.5 -30t-41.5 -86q0 -27 10 -48t32.5 -38t40.5 -27t52 -25q43 -20 65 -32t49.5 -33.5t39.5 -49t12 -63.5zM306 884l85 -89l147 95l37 -56l-195 -124l-125 129z"/>
<glyph glyph-name="scaron" horiz-adv-x="450" unicode="š" d="M252 261q38 -9 58.5 -15.5t44.5 -19.5t34.5 -33.5t10.5 -49.5q0 -71 -61 -112t-141 -41q-117 0 -191 82l55 53q22 -33 63.5 -51t86.5 -18q50 0 83 20.5t33 53.5q0 16 -7.5 27t-27 19t-31.5 12t-42 11q-35 8 -57 16.5t-45 23.5t-34.5 39t-11.5 57q0 52 30 87.5t71 49.5 t89 14q91 0 157 -53l-44 -53q-47 43 -124 43q-47 0 -79 -22t-32 -60q0 -35 26.5 -50.5t85.5 -29.5zM214 723l85 -89l147 95l37 -56l-195 -124l-125 129z"/>
<glyph glyph-name="Ydieresis" horiz-adv-x="598" unicode="Ÿ" d="M281 0h-74l65 280l-160 378h82l125 -311l269 311h92l-334 -378zM572 769q0 -23 -16 -39t-39 -16t-38.5 16t-15.5 39t15.5 38.5t38.5 15.5t39 -16t16 -38zM354 769q0 -23 -15.5 -39t-37.5 -16q-23 0 -39.5 16t-16.5 39q0 22 16.5 38t39.5 16q22 0 37.5 -16t15.5 -38z"/>
<glyph glyph-name="Zcaron" horiz-adv-x="578" unicode="Ž" d="M15 62l481 528h-341l16 68h440l-15 -61l-480 -529h372l-15 -68h-472zM326 884l85 -89l147 95l37 -56l-195 -124l-125 129z"/>
<glyph glyph-name="zcaron" horiz-adv-x="518" unicode="ž" d="M418 0h-408l16 68l369 339h-280l16 67h382l-16 -67l-372 -339h309zM247 723l85 -89l147 95l37 -56l-195 -124l-125 129z"/>
<glyph glyph-name="florin" horiz-adv-x="383" unicode="ƒ" d="M366 675q68 0 103 -40l-45 -50q-26 27 -63 27q-29 0 -52.5 -18.5t-31.5 -53.5l-14 -65v-1h121l-15 -66h-121l-114 -491q-16 -68 -57 -102.5t-92 -34.5q-52 0 -92 37l40 54q24 -27 55 -27q26 0 47 19.5t29 55.5l113 489h-83l15 66h83v1l17 75q14 62 58.5 93.5t98.5 31.5z "/>
<glyph glyph-name="circumflex" horiz-adv-x="331" unicode="ˆ" d="M359 555l-85 89l-147 -95l-37 56l195 124l125 -129z"/>
<glyph glyph-name="caron" horiz-adv-x="331" unicode="ˇ" d="M158 723l85 -89l147 95l37 -56l-195 -124l-125 129z"/>
<glyph glyph-name="breve" horiz-adv-x="264" unicode="˘" d="M283 692h77q0 -54 -31 -91t-94 -37t-94 37t-31 91h77q0 -22 11.5 -39.5t36.5 -17.5t36.5 17.5t11.5 39.5z"/>
<glyph glyph-name="dotaccent" horiz-adv-x="122" unicode="˙" d="M94 619q0 22 16 38t39 16t39 -16t16 -38q0 -23 -16 -39t-39 -16t-39 16t-16 39z"/>
<glyph glyph-name="ring" horiz-adv-x="252" unicode="˚" d="M166 680q0 -27 17 -45t44 -18q26 0 43.5 18t17.5 45q0 26 -17.5 44.5t-43.5 18.5q-27 0 -44 -18t-17 -45zM110 680q0 49 33.5 83.5t83.5 34.5q49 0 84 -34.5t35 -83.5t-35 -82.5t-84 -33.5q-50 0 -83.5 33t-33.5 83z"/>
<glyph glyph-name="ogonek" horiz-adv-x="166" unicode="˛" d="M62 -190q-57 6 -92.5 36t-35.5 74q0 57 62 91h64q-57 -34 -57 -77q0 -23 20.5 -39t54.5 -16z"/>
<glyph glyph-name="tilde" horiz-adv-x="325" unicode="˜" d="M316 565q-25 0 -63 27.5t-53 27.5q-7 0 -13 -2.5t-13.5 -10l-11 -11t-12.5 -15.5t-11 -14l-49 38q55 88 107 88q26 0 67.5 -29.5t53.5 -29.5q4 0 8.5 1.5t9 5t7.5 7t8 9.5t7.5 9.5t7.5 11.5t7 11l44 -34q-20 -31 -30.5 -45.5t-30 -29.5t-40.5 -15z"/>
<glyph glyph-name="hungarumlaut" horiz-adv-x="288" unicode="˝" d="M292 564h-79l73 123h101zM159 564h-78l52 123h101z"/>
<glyph glyph-name="mu" horiz-adv-x="539" unicode="μ" d="M414 0h-71l17 76q-32 -42 -78 -65t-91 -23q-67 0 -97 43l-55 -239h-71l157 682h72l-67 -289q-5 -25 -5 -40q0 -44 25.5 -67t63.5 -23q56 0 109 44t71 120l59 255h70z"/>
<glyph glyph-name="endash" horiz-adv-x="485" unicode="–" d="M436 307l-15 -66h-355l15 66h355z"/>
<glyph glyph-name="emdash" horiz-adv-x="665" unicode="—" d="M616 307l-15 -66h-535l15 66h535z"/>
<glyph glyph-name="quoteleft" horiz-adv-x="239" unicode="‘" d="M224 660l54 -30l-137 -246l-77 46z"/>
<glyph glyph-name="quoteright" horiz-adv-x="238" unicode="’" d="M151 408l-54 30l137 246l77 -46z"/>
<glyph glyph-name="quotesinglbase" horiz-adv-x="238" unicode="‚" d="M19 -161l-54 30l137 246l77 -46z"/>
<glyph glyph-name="quotedblleft" horiz-adv-x="420" unicode="“" d="M407 660l54 -30l-137 -246l-77 46zM225 660l54 -30l-137 -246l-77 46z"/>
<glyph glyph-name="quotedblright" horiz-adv-x="430" unicode="”" d="M343 408l-54 30l137 246l77 -46zM151 408l-54 30l137 246l77 -46z"/>
<glyph glyph-name="quotedblbase" horiz-adv-x="420" unicode="„" d="M201 -161l-54 30l137 246l77 -46zM19 -161l-54 30l137 246l77 -46z"/>
<glyph glyph-name="dagger" horiz-adv-x="449" unicode="†" d="M317 478h142l-15 -66h-142l-95 -412h-74l95 412h-142l15 66h142l42 180h74z"/>
<glyph glyph-name="daggerdbl" horiz-adv-x="449" unicode="‡" d="M391 180h-142l-42 -180h-74l42 180h-142l15 66h142l38 166h-142l15 66h142l42 180h74l-42 -180h142l-15 -66h-142l-38 -166h142z"/>
<glyph glyph-name="bullet" horiz-adv-x="241" unicode="•" d="M198 255q0 -30 -21.5 -52t-50.5 -22q-31 0 -53 22t-22 52t22 51t53 21q29 0 50.5 -21t21.5 -51z"/>
<glyph glyph-name="ellipsis" horiz-adv-x="729" unicode="…" d="M511 46q0 24 16.5 40t39.5 16t39.5 -16t16.5 -40q0 -23 -16.5 -39.5t-39.5 -16.5t-39.5 16.5t-16.5 39.5zM279 46q0 24 16.5 40t39.5 16t39.5 -16t16.5 -40q0 -23 -16.5 -39.5t-39.5 -16.5t-39.5 16.5t-16.5 39.5zM47 46q0 24 16.5 40t39.5 16t39.5 -16t16.5 -40 q0 -23 -16.5 -39.5t-39.5 -16.5t-39.5 16.5t-16.5 39.5z"/>
<glyph glyph-name="perthousand" horiz-adv-x="1399" unicode="‰" d="M1103 161q0 -41 27.5 -68.5t66.5 -27.5q41 0 67 27t26 69q0 43 -26 70t-67 27q-40 0 -67 -27.5t-27 -69.5zM703 161q0 -41 27.5 -68.5t66.5 -27.5q41 0 67 27t26 69q0 43 -26 70t-67 27q-40 0 -67 -27.5t-27 -69.5zM1030 161q0 71 48.5 121t118.5 50q71 0 120.5 -50 t49.5 -121q0 -69 -49.5 -117.5t-120.5 -48.5q-70 0 -118.5 48.5t-48.5 117.5zM630 161q0 71 48.5 121t118.5 50q71 0 120.5 -50t49.5 -121q0 -69 -49.5 -117.5t-120.5 -48.5q-70 0 -118.5 48.5t-48.5 117.5zM199 502q0 -42 27.5 -69t66.5 -27q41 0 67 27t26 69q0 43 -26 70 t-67 27q-40 0 -67 -27.5t-27 -69.5zM253 100l533 506l45 -45l-534 -508zM126 502q0 71 48.5 121t118.5 50q71 0 120.5 -50t49.5 -121q0 -69 -49.5 -117.5t-120.5 -48.5q-70 0 -118.5 48.5t-48.5 117.5z"/>
<glyph glyph-name="guilsinglleft" horiz-adv-x="309" unicode="‹" d="M209 85l-56 -36l-132 212l230 212l46 -51l-189 -169z"/>
<glyph glyph-name="guilsinglright" horiz-adv-x="309" unicode="›" d="M97 437l56 36l132 -212l-230 -212l-46 51l189 169z"/>
<glyph glyph-name="fraction" horiz-adv-x="481" unicode="⁄" d="M-27 100l533 506l45 -45l-534 -508z"/>
<glyph glyph-name="foursuperior" horiz-adv-x="388" unicode="⁴" d="M297 573l-123 -124h92zM385 380h-68l-17 -66h-68l17 66h-181l14 56l224 222h80l-52 -209h68z"/>
<glyph glyph-name="Euro" horiz-adv-x="759" unicode="€" d="M535 606q-92 0 -164 -47.5t-114 -124.5h333l-15 -65h-347q-11 -35 -16 -75h352l-15 -65h-336q11 -83 65.5 -127.5t131.5 -44.5q69 0 137 37t114 105l53 -40q-57 -84 -143 -129t-174 -45q-103 0 -175.5 63t-82.5 181h-126l15 65h110q3 39 12 75h-105l15 65h113 q50 111 154 176t221 65q139 0 226 -100l-56 -48q-71 79 -183 79z"/>
<glyph glyph-name="numero" horiz-adv-x="1116" unicode="№" d="M854 502q0 -42 27 -69t67 -27q41 0 67 27t26 69q0 43 -26 70t-67 27q-40 0 -67 -27.5t-27 -69.5zM566 0h-74l-254 541l-124 -541h-74l152 658h74l253 -539l125 539h74zM781 502q0 71 48.5 121t118.5 50q71 0 120.5 -50t49.5 -121q0 -69 -49.5 -117.5t-120.5 -48.5 q-70 0 -118.5 48.5t-48.5 117.5z"/>
<glyph glyph-name="trademark" horiz-adv-x="842" unicode="™" d="M472 658h73l94 -177l93 177h75v-333h-64v204l-78 -132h-51l-78 132v-204h-64v333zM253 597h-101v61h268v-61h-101v-272h-66v272z"/>
<glyph glyph-name="minus" horiz-adv-x="455" unicode="−" d="M72 306h344l-16 -66h-344z"/>
<glyph glyph-name="infinity" horiz-adv-x="859" unicode="∞" d="M604 144q57 0 100.5 42t43.5 113q0 54 -31.5 85t-76.5 31q-49 0 -96 -38t-73 -103q6 -63 45 -96.5t88 -33.5zM239 144q50 0 97 38t73 103q-6 63 -45.5 96.5t-88.5 33.5q-57 0 -100 -42t-43 -113q0 -54 31.5 -85t75.5 -31zM654 486q80 0 125 -53t45 -128 q0 -89 -64.5 -160.5t-167.5 -71.5q-120 0 -170 120q-85 -120 -197 -120q-80 0 -125 53t-45 128q0 89 64.5 160.5t167.5 71.5q120 0 170 -120q85 120 197 120z"/>
<glyph glyph-name="acute.cap" d="M343 849l21 -71l-205 -63l-22 70z" horiz-adv-x="239"/>
<glyph glyph-name="breve.cap" d="M323 842h77q0 -54 -31 -91t-94 -37t-94 37t-31 91h77q0 -22 11.5 -39.5t36.5 -17.5t36.5 17.5t11.5 39.5z" horiz-adv-x="265"/>
<glyph glyph-name="caron.cap" d="M190 884l85 -89l147 95l37 -56l-195 -124l-125 129z" horiz-adv-x="321"/>
<glyph glyph-name="cedilla.cap" d="M59 14l-26 -72q104 -20 104 -91q0 -50 -33 -75.5t-82 -25.5q-67 0 -114 43l34 45q36 -34 74 -34q26 0 45 12t19 35q0 26 -24.5 40t-81.5 24l31 99h54z" horiz-adv-x="229"/>
<glyph glyph-name="circumflex.cap" d="M401 715l-85 89l-147 -95l-37 56l195 124l125 -129z" horiz-adv-x="331"/>
<glyph glyph-name="dieresis.cap" d="M461 769q0 -23 -16 -39t-39 -16t-38.5 16t-15.5 39t16 38.5t38 15.5q23 0 39 -16t16 -38zM243 769q0 -23 -15.5 -39t-37.5 -16q-23 0 -39.5 16t-16.5 39q0 22 16.5 38t39.5 16q22 0 37.5 -16t15.5 -38z" horiz-adv-x="340"/>
<glyph glyph-name="dotaccent.cap" d="M134 769q0 22 16 38t39 16t39 -16t16 -38q0 -23 -16 -39t-39 -16t-39 16t-16 39z" horiz-adv-x="123"/>
<glyph glyph-name="grave.cap" d="M135 777l21 71l206 -64l-22 -70z" horiz-adv-x="236"/>
<glyph glyph-name="hungarumlaut.cap" d="M331 714h-79l73 123h101zM198 714h-78l52 123h101z" horiz-adv-x="287"/>
<glyph glyph-name="macron.cap" d="M416 785l-16 -71h-279l16 71h279z" horiz-adv-x="290"/>
<glyph glyph-name="ogonek.cap" d="M67 -190q-57 6 -92.5 36t-35.5 74q0 57 62 91h64q-57 -34 -57 -77q0 -23 20.5 -39t54.5 -16z" horiz-adv-x="166"/>
<glyph glyph-name="ring.cap" d="M206 830q0 -27 17 -45t44 -18q26 0 43.5 18t17.5 45q0 26 -17.5 44.5t-43.5 18.5q-27 0 -44 -18t-17 -45zM150 830q0 49 33.5 83.5t83.5 34.5q49 0 84 -34.5t35 -83.5t-35 -82.5t-84 -33.5q-50 0 -83.5 33t-33.5 83z" horiz-adv-x="252"/>
<glyph glyph-name="tilde.cap" d="M356 716q-25 0 -63 27.5t-53 27.5q-7 0 -13 -2.5t-13.5 -10l-11 -11t-12.5 -15.5t-11 -14l-49 38q55 88 107 88q26 0 67.5 -29.5t53.5 -29.5q4 0 8.5 1.5t9 5t7.5 7t8 9.5t7.5 9.5t7.5 11.5t7 11l44 -34q-20 -31 -30.5 -45.5t-30 -29.5t-40.5 -15z" horiz-adv-x="326"/>
<glyph glyph-name="null" horiz-adv-x="30"/>
</font>
</defs>
</svg>
